<svg width="512" height="400" viewBox="0 0 512 400" fill="none" xmlns="http://www.w3.org/2000/svg">
<rect width="512" height="400" rx="10" fill="#0F1316"/>
<rect x="0.5" y="0.5" width="511" height="399" rx="9.5" stroke="black" stroke-opacity="0.2"/>
<path d="M77.8439 168H46.9295V84.3636H77.8031C86.3246 84.3636 93.6619 86.038 99.8148 89.3867C105.995 92.7082 110.759 97.4999 114.108 103.762C117.457 109.996 119.131 117.456 119.131 126.141C119.131 134.853 117.457 142.34 114.108 148.602C110.787 154.864 106.036 159.669 99.8556 163.018C93.6755 166.339 86.3382 168 77.8439 168ZM67.1444 150.766H77.068C81.7508 150.766 85.7121 149.977 88.9519 148.398C92.2189 146.791 94.6828 144.191 96.3436 140.598C98.0315 136.977 98.8755 132.158 98.8755 126.141C98.8755 120.124 98.0315 115.333 96.3436 111.766C94.6556 108.172 92.1645 105.586 88.8702 104.007C85.6032 102.4 81.5738 101.597 76.7821 101.597H67.1444V150.766ZM146.83 168L122.49 84.3636H144.829L157.448 139.168H158.142L172.558 84.3636H190.771L205.187 139.291H205.881L218.541 84.3636H240.839L216.54 168H197.06L181.991 117.279H181.338L166.269 168H146.83ZM269.242 168L244.902 84.3636H267.241L279.86 139.168H280.554L294.97 84.3636H313.184L327.599 139.291H328.294L340.953 84.3636H363.251L338.952 168H319.473L304.403 117.279H303.75L288.681 168H269.242ZM371.602 84.3636H396.636L417.872 136.146H418.852L440.088 84.3636H465.122V168H445.438V116.626H444.743L424.651 167.469H412.073L391.981 116.34H391.286V168H371.602V84.3636Z" fill="white"/>
<path d="M86.8105 210H78.9554V184.545H87.1586C89.6278 184.545 91.7407 185.055 93.4973 186.074C95.254 187.085 96.6004 188.539 97.5368 190.437C98.4731 192.326 98.9412 194.588 98.9412 197.223C98.9412 199.875 98.4689 202.157 97.5243 204.071C96.5797 205.977 95.2042 207.444 93.3979 208.471C91.5916 209.49 89.3958 210 86.8105 210ZM82.0378 207.266H86.6117C88.7163 207.266 90.4605 206.86 91.8443 206.048C93.228 205.236 94.2596 204.08 94.9391 202.58C95.6185 201.08 95.9583 199.295 95.9583 197.223C95.9583 195.168 95.6227 193.399 94.9515 191.916C94.2804 190.424 93.2778 189.281 91.9437 188.485C90.6097 187.682 88.9483 187.28 86.9597 187.28H82.0378V207.266ZM111.47 210.398C109.746 210.398 108.234 209.988 106.933 209.167C105.64 208.347 104.63 207.199 103.9 205.724C103.18 204.25 102.819 202.526 102.819 200.554C102.819 198.565 103.18 196.829 103.9 195.346C104.63 193.863 105.64 192.711 106.933 191.891C108.234 191.071 109.746 190.661 111.47 190.661C113.193 190.661 114.701 191.071 115.994 191.891C117.295 192.711 118.306 193.863 119.026 195.346C119.756 196.829 120.12 198.565 120.12 200.554C120.12 202.526 119.756 204.25 119.026 205.724C118.306 207.199 117.295 208.347 115.994 209.167C114.701 209.988 113.193 210.398 111.47 210.398ZM111.47 207.763C112.779 207.763 113.856 207.427 114.701 206.756C115.546 206.085 116.172 205.202 116.578 204.109C116.984 203.015 117.187 201.83 117.187 200.554C117.187 199.278 116.984 198.089 116.578 196.987C116.172 195.885 115.546 194.994 114.701 194.315C113.856 193.635 112.779 193.295 111.47 193.295C110.16 193.295 109.083 193.635 108.238 194.315C107.393 194.994 106.767 195.885 106.361 196.987C105.955 198.089 105.752 199.278 105.752 200.554C105.752 201.83 105.955 203.015 106.361 204.109C106.767 205.202 107.393 206.085 108.238 206.756C109.083 207.427 110.16 207.763 111.47 207.763ZM132.602 210.398C130.763 210.398 129.176 209.992 127.842 209.18C126.516 208.359 125.493 207.216 124.772 205.749C124.059 204.274 123.703 202.559 123.703 200.604C123.703 198.648 124.059 196.925 124.772 195.433C125.493 193.933 126.495 192.765 127.78 191.928C129.072 191.083 130.58 190.661 132.304 190.661C133.298 190.661 134.28 190.826 135.249 191.158C136.219 191.489 137.101 192.028 137.897 192.773C138.692 193.511 139.326 194.489 139.798 195.707C140.271 196.925 140.507 198.424 140.507 200.206V201.449H125.791V198.913H137.524C137.524 197.836 137.308 196.875 136.878 196.03C136.455 195.185 135.85 194.518 135.063 194.029C134.284 193.54 133.364 193.295 132.304 193.295C131.135 193.295 130.124 193.585 129.271 194.165C128.426 194.737 127.775 195.483 127.32 196.403C126.864 197.322 126.636 198.308 126.636 199.361V201.051C126.636 202.493 126.885 203.715 127.382 204.718C127.887 205.712 128.587 206.47 129.482 206.992C130.377 207.506 131.417 207.763 132.602 207.763C133.373 207.763 134.069 207.655 134.69 207.44C135.32 207.216 135.863 206.884 136.318 206.445C136.774 205.998 137.126 205.443 137.375 204.78L140.209 205.575C139.91 206.536 139.409 207.382 138.705 208.111C138 208.832 137.13 209.395 136.095 209.801C135.059 210.199 133.895 210.398 132.602 210.398ZM158.492 195.185L155.857 195.93C155.691 195.491 155.446 195.065 155.123 194.65C154.808 194.228 154.378 193.88 153.831 193.606C153.284 193.333 152.584 193.196 151.73 193.196C150.562 193.196 149.588 193.465 148.809 194.004C148.039 194.534 147.653 195.21 147.653 196.03C147.653 196.759 147.919 197.335 148.449 197.757C148.979 198.18 149.808 198.532 150.935 198.814L153.769 199.51C155.475 199.924 156.747 200.558 157.584 201.412C158.421 202.257 158.84 203.346 158.84 204.68C158.84 205.774 158.525 206.752 157.895 207.614C157.274 208.475 156.403 209.155 155.285 209.652C154.166 210.149 152.865 210.398 151.382 210.398C149.435 210.398 147.823 209.975 146.547 209.13C145.271 208.285 144.463 207.05 144.124 205.426L146.908 204.73C147.173 205.758 147.674 206.528 148.412 207.042C149.157 207.556 150.131 207.812 151.332 207.812C152.7 207.812 153.785 207.522 154.589 206.942C155.401 206.354 155.807 205.65 155.807 204.83C155.807 204.167 155.575 203.612 155.111 203.164C154.647 202.708 153.934 202.369 152.973 202.145L149.791 201.399C148.043 200.985 146.759 200.343 145.938 199.473C145.126 198.594 144.72 197.496 144.72 196.179C144.72 195.102 145.023 194.149 145.628 193.32C146.241 192.492 147.073 191.841 148.126 191.369C149.186 190.897 150.388 190.661 151.73 190.661C153.619 190.661 155.103 191.075 156.18 191.903C157.265 192.732 158.036 193.826 158.492 195.185ZM173.496 184.545H177.175L185.826 205.675H186.124L194.775 184.545H198.454V210H195.57V190.661H195.322L187.367 210H184.583L176.629 190.661H176.38V210H173.496V184.545ZM206.126 217.159C205.628 217.159 205.185 217.118 204.796 217.035C204.406 216.96 204.137 216.886 203.988 216.811L204.734 214.226C205.446 214.408 206.076 214.474 206.623 214.425C207.17 214.375 207.654 214.131 208.077 213.691C208.508 213.261 208.901 212.56 209.258 211.591L209.805 210.099L202.745 190.909H205.927L211.197 206.122H211.396L216.665 190.909H219.847L211.744 212.784C211.379 213.77 210.927 214.586 210.389 215.233C209.85 215.887 209.225 216.372 208.512 216.687C207.808 217.002 207.012 217.159 206.126 217.159ZM233.96 184.545H237.639L246.29 205.675H246.588L255.239 184.545H258.918V210H256.034V190.661H255.786L247.831 210H245.047L237.092 190.661H236.844V210H233.96V184.545ZM272.456 210.398C270.732 210.398 269.22 209.988 267.919 209.167C266.627 208.347 265.616 207.199 264.887 205.724C264.166 204.25 263.805 202.526 263.805 200.554C263.805 198.565 264.166 196.829 264.887 195.346C265.616 193.863 266.627 192.711 267.919 191.891C269.22 191.071 270.732 190.661 272.456 190.661C274.179 190.661 275.688 191.071 276.98 191.891C278.281 192.711 279.292 193.863 280.013 195.346C280.742 196.829 281.107 198.565 281.107 200.554C281.107 202.526 280.742 204.25 280.013 205.724C279.292 207.199 278.281 208.347 276.98 209.167C275.688 209.988 274.179 210.398 272.456 210.398ZM272.456 207.763C273.765 207.763 274.842 207.427 275.688 206.756C276.533 206.085 277.158 205.202 277.564 204.109C277.97 203.015 278.173 201.83 278.173 200.554C278.173 199.278 277.97 198.089 277.564 196.987C277.158 195.885 276.533 194.994 275.688 194.315C274.842 193.635 273.765 193.295 272.456 193.295C271.147 193.295 270.07 193.635 269.224 194.315C268.379 194.994 267.754 195.885 267.348 196.987C266.942 198.089 266.739 199.278 266.739 200.554C266.739 201.83 266.942 203.015 267.348 204.109C267.754 205.202 268.379 206.085 269.224 206.756C270.07 207.427 271.147 207.763 272.456 207.763ZM297.615 202.195V190.909H300.549V210H297.615V206.768H297.416C296.969 207.738 296.273 208.562 295.328 209.242C294.384 209.913 293.191 210.249 291.749 210.249C290.556 210.249 289.495 209.988 288.567 209.466C287.639 208.935 286.91 208.14 286.38 207.079C285.849 206.01 285.584 204.664 285.584 203.04V190.909H288.517V202.841C288.517 204.233 288.907 205.343 289.686 206.172C290.473 207 291.475 207.415 292.693 207.415C293.423 207.415 294.164 207.228 294.918 206.855C295.681 206.483 296.319 205.911 296.832 205.14C297.354 204.37 297.615 203.388 297.615 202.195ZM319.444 195.185L316.809 195.93C316.643 195.491 316.399 195.065 316.075 194.65C315.761 194.228 315.33 193.88 314.783 193.606C314.236 193.333 313.536 193.196 312.682 193.196C311.514 193.196 310.54 193.465 309.762 194.004C308.991 194.534 308.606 195.21 308.606 196.03C308.606 196.759 308.871 197.335 309.401 197.757C309.931 198.18 310.76 198.532 311.887 198.814L314.721 199.51C316.428 199.924 317.7 200.558 318.536 201.412C319.373 202.257 319.792 203.346 319.792 204.68C319.792 205.774 319.477 206.752 318.847 207.614C318.226 208.475 317.356 209.155 316.237 209.652C315.118 210.149 313.818 210.398 312.334 210.398C310.387 210.398 308.776 209.975 307.499 209.13C306.223 208.285 305.416 207.05 305.076 205.426L307.86 204.73C308.125 205.758 308.626 206.528 309.364 207.042C310.11 207.556 311.083 207.812 312.285 207.812C313.652 207.812 314.737 207.522 315.541 206.942C316.353 206.354 316.759 205.65 316.759 204.83C316.759 204.167 316.527 203.612 316.063 203.164C315.599 202.708 314.886 202.369 313.925 202.145L310.743 201.399C308.995 200.985 307.711 200.343 306.89 199.473C306.078 198.594 305.672 197.496 305.672 196.179C305.672 195.102 305.975 194.149 306.58 193.32C307.193 192.492 308.026 191.841 309.078 191.369C310.139 190.897 311.34 190.661 312.682 190.661C314.572 190.661 316.055 191.075 317.132 191.903C318.217 192.732 318.988 193.826 319.444 195.185ZM332.211 210.398C330.372 210.398 328.785 209.992 327.451 209.18C326.125 208.359 325.102 207.216 324.381 205.749C323.669 204.274 323.312 202.559 323.312 200.604C323.312 198.648 323.669 196.925 324.381 195.433C325.102 193.933 326.105 192.765 327.389 191.928C328.682 191.083 330.19 190.661 331.913 190.661C332.907 190.661 333.889 190.826 334.859 191.158C335.828 191.489 336.711 192.028 337.506 192.773C338.302 193.511 338.935 194.489 339.408 195.707C339.88 196.925 340.116 198.424 340.116 200.206V201.449H325.4V198.913H337.133C337.133 197.836 336.918 196.875 336.487 196.03C336.064 195.185 335.459 194.518 334.672 194.029C333.893 193.54 332.974 193.295 331.913 193.295C330.745 193.295 329.734 193.585 328.88 194.165C328.035 194.737 327.385 195.483 326.929 196.403C326.473 197.322 326.245 198.308 326.245 199.361V201.051C326.245 202.493 326.494 203.715 326.991 204.718C327.497 205.712 328.197 206.47 329.092 206.992C329.987 207.506 331.026 207.763 332.211 207.763C332.982 207.763 333.678 207.655 334.299 207.44C334.929 207.216 335.472 206.884 335.928 206.445C336.383 205.998 336.736 205.443 336.984 204.78L339.818 205.575C339.52 206.536 339.018 207.382 338.314 208.111C337.61 208.832 336.74 209.395 335.704 209.801C334.668 210.199 333.504 210.398 332.211 210.398ZM359.443 210L352.483 184.545H355.615L360.935 205.277H361.183L366.602 184.545H370.082L375.502 205.277H375.75L381.07 184.545H384.202L377.242 210H374.06L368.442 189.716H368.243L362.625 210H359.443ZM393.623 210.398C391.899 210.398 390.387 209.988 389.086 209.167C387.794 208.347 386.783 207.199 386.054 205.724C385.333 204.25 384.972 202.526 384.972 200.554C384.972 198.565 385.333 196.829 386.054 195.346C386.783 193.863 387.794 192.711 389.086 191.891C390.387 191.071 391.899 190.661 393.623 190.661C395.346 190.661 396.854 191.071 398.147 191.891C399.448 192.711 400.459 193.863 401.18 195.346C401.909 196.829 402.274 198.565 402.274 200.554C402.274 202.526 401.909 204.25 401.18 205.724C400.459 207.199 399.448 208.347 398.147 209.167C396.854 209.988 395.346 210.398 393.623 210.398ZM393.623 207.763C394.932 207.763 396.009 207.427 396.854 206.756C397.7 206.085 398.325 205.202 398.731 204.109C399.137 203.015 399.34 201.83 399.34 200.554C399.34 199.278 399.137 198.089 398.731 196.987C398.325 195.885 397.7 194.994 396.854 194.315C396.009 193.635 394.932 193.295 393.623 193.295C392.314 193.295 391.237 193.635 390.391 194.315C389.546 194.994 388.921 195.885 388.515 196.987C388.109 198.089 387.906 199.278 387.906 200.554C387.906 201.83 388.109 203.015 388.515 204.109C388.921 205.202 389.546 206.085 390.391 206.756C391.237 207.427 392.314 207.763 393.623 207.763ZM406.751 210V190.909H409.585V193.793H409.784C410.132 192.848 410.761 192.082 411.673 191.493C412.584 190.905 413.612 190.611 414.755 190.611C414.971 190.611 415.24 190.615 415.563 190.623C415.886 190.632 416.131 190.644 416.297 190.661V193.643C416.197 193.619 415.969 193.581 415.613 193.532C415.265 193.474 414.896 193.445 414.507 193.445C413.579 193.445 412.75 193.639 412.021 194.029C411.3 194.41 410.728 194.94 410.306 195.62C409.891 196.291 409.684 197.057 409.684 197.919V210H406.751ZM422.508 203.04L422.458 199.411H423.055L431.407 190.909H435.036L426.137 199.908H425.889L422.508 203.04ZM419.774 210V184.545H422.707V210H419.774ZM431.904 210L424.447 200.554L426.535 198.516L435.633 210H431.904Z" fill="white"/>
<path d="M67.0746 267H65.4723C65.353 266.403 65.1371 265.852 64.8246 265.347C64.5178 264.835 64.1314 264.389 63.6655 264.009C63.1996 263.628 62.6712 263.332 62.0803 263.122C61.4893 262.912 60.8501 262.807 60.1626 262.807C59.0604 262.807 58.0547 263.094 57.1456 263.668C56.2422 264.241 55.5178 265.085 54.9723 266.199C54.4325 267.307 54.1626 268.665 54.1626 270.273C54.1626 271.892 54.4325 273.256 54.9723 274.364C55.5178 275.472 56.2422 276.312 57.1456 276.886C58.0547 277.455 59.0604 277.739 60.1626 277.739C60.8501 277.739 61.4893 277.634 62.0803 277.423C62.6712 277.213 63.1996 276.92 63.6655 276.545C64.1314 276.165 64.5178 275.719 64.8246 275.207C65.1371 274.696 65.353 274.142 65.4723 273.545H67.0746C66.9325 274.347 66.6655 275.094 66.2734 275.787C65.8871 276.474 65.3928 277.077 64.7905 277.594C64.1939 278.111 63.5064 278.514 62.728 278.804C61.9496 279.094 61.0945 279.239 60.1626 279.239C58.6967 279.239 57.3956 278.872 56.2592 278.139C55.1229 277.401 54.2308 276.361 53.5831 275.02C52.9411 273.679 52.62 272.097 52.62 270.273C52.62 268.449 52.9411 266.866 53.5831 265.526C54.2308 264.185 55.1229 263.148 56.2592 262.415C57.3956 261.676 58.6967 261.307 60.1626 261.307C61.0945 261.307 61.9496 261.452 62.728 261.741C63.5064 262.026 64.1939 262.429 64.7905 262.952C65.3928 263.469 65.8871 264.071 66.2734 264.759C66.6655 265.446 66.9325 266.193 67.0746 267ZM72.0199 261.545V279H70.5028V261.545H72.0199ZM76.0511 279V265.909H77.5767V279H76.0511ZM76.8267 263.659C76.5142 263.659 76.2472 263.554 76.0256 263.344C75.804 263.128 75.6932 262.869 75.6932 262.568C75.6932 262.267 75.804 262.011 76.0256 261.801C76.2472 261.585 76.5142 261.477 76.8267 261.477C77.1392 261.477 77.4063 261.585 77.6278 261.801C77.8494 262.011 77.9602 262.267 77.9602 262.568C77.9602 262.869 77.8494 263.128 77.6278 263.344C77.4063 263.554 77.1392 263.659 76.8267 263.659ZM86.7024 279.273C85.532 279.273 84.5121 278.98 83.6428 278.395C82.7791 277.81 82.1087 277.009 81.6314 275.991C81.1541 274.974 80.9155 273.815 80.9155 272.514C80.9155 271.202 81.157 270.034 81.6399 269.011C82.1286 267.989 82.8047 267.187 83.6683 266.608C84.532 266.023 85.5348 265.73 86.6768 265.73C87.5518 265.73 88.3445 265.901 89.0547 266.241C89.7649 266.577 90.3501 267.051 90.8104 267.665C91.2763 268.273 91.5689 268.983 91.6882 269.795H90.1541C89.995 269.057 89.6115 268.426 89.0036 267.903C88.4013 267.375 87.6342 267.111 86.7024 267.111C85.8672 267.111 85.1286 267.338 84.4865 267.793C83.8445 268.241 83.3416 268.869 82.978 269.676C82.62 270.477 82.4411 271.406 82.4411 272.463C82.4411 273.526 82.6172 274.466 82.9695 275.284C83.3217 276.097 83.8161 276.733 84.4524 277.193C85.0945 277.653 85.8445 277.884 86.7024 277.884C87.282 277.884 87.8104 277.776 88.2876 277.56C88.7706 277.338 89.174 277.026 89.4979 276.622C89.8274 276.219 90.049 275.739 90.1626 275.182H91.6967C91.5831 275.972 91.3018 276.676 90.853 277.295C90.4098 277.909 89.8331 278.392 89.1229 278.744C88.4183 279.097 87.6115 279.273 86.7024 279.273ZM96.3288 274.057L96.3118 272.071H96.6527L102.789 265.909H104.707L98.647 271.977L98.5107 272.003L96.3288 274.057ZM94.9482 279V261.545H96.4652V279H94.9482ZM103.104 279L97.7862 272.276L98.8771 271.227L105.048 279H103.104ZM119.464 265.909V267.23H113.217V265.909H119.464ZM115.168 262.773H116.694V275.582C116.694 276.128 116.788 276.557 116.975 276.869C117.163 277.176 117.407 277.395 117.708 277.526C118.009 277.651 118.33 277.713 118.671 277.713C118.87 277.713 119.04 277.702 119.183 277.679C119.325 277.651 119.45 277.622 119.558 277.594L119.881 278.966C119.734 279.023 119.552 279.074 119.336 279.119C119.12 279.17 118.853 279.196 118.535 279.196C117.978 279.196 117.441 279.074 116.924 278.83C116.413 278.585 115.992 278.222 115.663 277.739C115.333 277.256 115.168 276.656 115.168 275.94V262.773ZM127.857 279.273C126.726 279.273 125.726 278.986 124.857 278.412C123.993 277.838 123.317 277.045 122.828 276.034C122.339 275.017 122.095 273.844 122.095 272.514C122.095 271.173 122.339 269.994 122.828 268.977C123.317 267.955 123.993 267.159 124.857 266.591C125.726 266.017 126.726 265.73 127.857 265.73C128.987 265.73 129.984 266.017 130.848 266.591C131.712 267.165 132.388 267.96 132.876 268.977C133.371 269.994 133.618 271.173 133.618 272.514C133.618 273.844 133.374 275.017 132.885 276.034C132.396 277.045 131.717 277.838 130.848 278.412C129.984 278.986 128.987 279.273 127.857 279.273ZM127.857 277.884C128.766 277.884 129.536 277.639 130.166 277.151C130.797 276.662 131.274 276.011 131.598 275.199C131.928 274.386 132.092 273.491 132.092 272.514C132.092 271.537 131.928 270.639 131.598 269.821C131.274 269.003 130.797 268.347 130.166 267.852C129.536 267.358 128.766 267.111 127.857 267.111C126.953 267.111 126.183 267.358 125.547 267.852C124.916 268.347 124.436 269.003 124.107 269.821C123.783 270.639 123.621 271.537 123.621 272.514C123.621 273.491 123.783 274.386 124.107 275.199C124.436 276.011 124.916 276.662 125.547 277.151C126.178 277.639 126.947 277.884 127.857 277.884ZM148.854 265.909V267.23H142.607V265.909H148.854ZM144.559 262.773H146.085V275.582C146.085 276.128 146.178 276.557 146.366 276.869C146.553 277.176 146.798 277.395 147.099 277.526C147.4 277.651 147.721 277.713 148.062 277.713C148.261 277.713 148.431 277.702 148.573 277.679C148.715 277.651 148.84 277.622 148.948 277.594L149.272 278.966C149.124 279.023 148.942 279.074 148.727 279.119C148.511 279.17 148.244 279.196 147.925 279.196C147.369 279.196 146.832 279.074 146.315 278.83C145.803 278.585 145.383 278.222 145.053 277.739C144.724 277.256 144.559 276.656 144.559 275.94V262.773ZM157.452 279.273C156.23 279.273 155.173 278.989 154.281 278.42C153.389 277.847 152.699 277.054 152.21 276.043C151.727 275.026 151.486 273.855 151.486 272.531C151.486 271.213 151.727 270.043 152.21 269.02C152.699 267.991 153.372 267.187 154.23 266.608C155.094 266.023 156.091 265.73 157.222 265.73C157.932 265.73 158.616 265.861 159.276 266.122C159.935 266.378 160.526 266.773 161.048 267.307C161.577 267.835 161.994 268.503 162.301 269.31C162.608 270.111 162.761 271.06 162.761 272.156V272.906H152.534V271.568H161.21C161.21 270.727 161.04 269.972 160.699 269.301C160.364 268.625 159.895 268.091 159.293 267.699C158.696 267.307 158.006 267.111 157.222 267.111C156.392 267.111 155.662 267.332 155.031 267.776C154.401 268.219 153.906 268.804 153.548 269.531C153.196 270.259 153.017 271.054 153.011 271.918V272.719C153.011 273.759 153.19 274.668 153.548 275.446C153.912 276.219 154.426 276.818 155.091 277.244C155.756 277.67 156.543 277.884 157.452 277.884C158.071 277.884 158.614 277.787 159.08 277.594C159.551 277.401 159.946 277.142 160.264 276.818C160.588 276.489 160.832 276.128 160.997 275.736L162.438 276.205C162.239 276.756 161.912 277.264 161.457 277.73C161.009 278.196 160.446 278.571 159.77 278.855C159.099 279.134 158.327 279.273 157.452 279.273ZM174.9 268.781L173.511 269.173C173.374 268.781 173.181 268.426 172.931 268.108C172.681 267.79 172.354 267.537 171.951 267.349C171.553 267.162 171.059 267.068 170.468 267.068C169.582 267.068 168.854 267.278 168.286 267.699C167.718 268.119 167.434 268.662 167.434 269.327C167.434 269.889 167.627 270.347 168.013 270.699C168.406 271.045 169.008 271.321 169.82 271.526L171.798 272.011C172.894 272.278 173.715 272.702 174.261 273.281C174.812 273.861 175.087 274.588 175.087 275.463C175.087 276.202 174.883 276.858 174.474 277.432C174.065 278.006 173.494 278.457 172.761 278.787C172.033 279.111 171.19 279.273 170.229 279.273C168.951 279.273 167.897 278.986 167.067 278.412C166.238 277.832 165.707 276.997 165.474 275.906L166.931 275.548C167.119 276.327 167.485 276.915 168.031 277.312C168.582 277.71 169.306 277.909 170.204 277.909C171.21 277.909 172.013 277.685 172.616 277.236C173.218 276.781 173.519 276.213 173.519 275.531C173.519 275.003 173.343 274.56 172.991 274.202C172.638 273.838 172.104 273.571 171.388 273.401L169.249 272.889C168.113 272.616 167.272 272.185 166.727 271.594C166.181 271.003 165.908 270.27 165.908 269.395C165.908 268.673 166.104 268.04 166.496 267.494C166.888 266.943 167.428 266.511 168.116 266.199C168.803 265.886 169.587 265.73 170.468 265.73C171.667 265.73 172.624 266.003 173.34 266.548C174.062 267.088 174.582 267.832 174.9 268.781ZM183.565 265.909V267.23H177.318V265.909H183.565ZM179.27 262.773H180.795V275.582C180.795 276.128 180.889 276.557 181.077 276.869C181.264 277.176 181.509 277.395 181.81 277.526C182.111 277.651 182.432 277.713 182.773 277.713C182.972 277.713 183.142 277.702 183.284 277.679C183.426 277.651 183.551 277.622 183.659 277.594L183.983 278.966C183.835 279.023 183.653 279.074 183.438 279.119C183.222 279.17 182.955 279.196 182.636 279.196C182.08 279.196 181.543 279.074 181.026 278.83C180.514 278.585 180.094 278.222 179.764 277.739C179.435 277.256 179.27 276.656 179.27 275.94V262.773ZM193.778 279V265.909H195.303V279H193.778ZM194.553 263.659C194.241 263.659 193.974 263.554 193.752 263.344C193.531 263.128 193.42 262.869 193.42 262.568C193.42 262.267 193.531 262.011 193.752 261.801C193.974 261.585 194.241 261.477 194.553 261.477C194.866 261.477 195.133 261.585 195.354 261.801C195.576 262.011 195.687 262.267 195.687 262.568C195.687 262.869 195.576 263.128 195.354 263.344C195.133 263.554 194.866 263.659 194.553 263.659ZM204.702 265.909V267.23H198.267V265.909H204.702ZM200.278 279V263.991C200.278 263.287 200.44 262.693 200.764 262.21C201.094 261.727 201.523 261.361 202.051 261.111C202.58 260.861 203.139 260.736 203.73 260.736C204.128 260.736 204.457 260.77 204.719 260.838C204.986 260.901 205.196 260.963 205.349 261.026L204.906 262.355C204.793 262.321 204.653 262.281 204.489 262.236C204.324 262.19 204.116 262.168 203.866 262.168C203.207 262.168 202.699 262.352 202.341 262.722C201.983 263.091 201.804 263.619 201.804 264.307L201.795 279H200.278ZM215.536 283.909C215.235 283.909 214.954 283.881 214.692 283.824C214.431 283.767 214.224 283.705 214.07 283.636L214.479 282.298C214.996 282.457 215.457 282.514 215.86 282.469C216.263 282.429 216.621 282.247 216.934 281.923C217.246 281.605 217.525 281.116 217.769 280.457L218.246 279.128L213.431 265.909H215.076L218.962 276.997H219.082L222.968 265.909H224.613L219.073 281.071C218.84 281.702 218.553 282.227 218.212 282.648C217.871 283.074 217.477 283.389 217.028 283.594C216.585 283.804 216.087 283.909 215.536 283.909ZM232.2 279.273C231.07 279.273 230.07 278.986 229.2 278.412C228.337 277.838 227.661 277.045 227.172 276.034C226.683 275.017 226.439 273.844 226.439 272.514C226.439 271.173 226.683 269.994 227.172 268.977C227.661 267.955 228.337 267.159 229.2 266.591C230.07 266.017 231.07 265.73 232.2 265.73C233.331 265.73 234.328 266.017 235.192 266.591C236.055 267.165 236.732 267.96 237.22 268.977C237.714 269.994 237.962 271.173 237.962 272.514C237.962 273.844 237.717 275.017 237.229 276.034C236.74 277.045 236.061 277.838 235.192 278.412C234.328 278.986 233.331 279.273 232.2 279.273ZM232.2 277.884C233.109 277.884 233.879 277.639 234.51 277.151C235.141 276.662 235.618 276.011 235.942 275.199C236.271 274.386 236.436 273.491 236.436 272.514C236.436 271.537 236.271 270.639 235.942 269.821C235.618 269.003 235.141 268.347 234.51 267.852C233.879 267.358 233.109 267.111 232.2 267.111C231.297 267.111 230.527 267.358 229.891 267.852C229.26 268.347 228.78 269.003 228.45 269.821C228.126 270.639 227.964 271.537 227.964 272.514C227.964 273.491 228.126 274.386 228.45 275.199C228.78 276.011 229.26 276.662 229.891 277.151C230.521 277.639 231.291 277.884 232.2 277.884ZM249.61 273.997V265.909H251.127V279H249.61V276.827H249.491C249.184 277.497 248.698 278.057 248.033 278.506C247.369 278.949 246.556 279.17 245.596 279.17C244.761 279.17 244.019 278.989 243.371 278.625C242.724 278.256 242.215 277.716 241.846 277.006C241.477 276.295 241.292 275.423 241.292 274.389V265.909H242.809V274.295C242.809 275.318 243.11 276.142 243.712 276.767C244.315 277.386 245.087 277.696 246.031 277.696C246.621 277.696 247.19 277.554 247.735 277.27C248.281 276.986 248.729 276.571 249.082 276.026C249.434 275.474 249.61 274.798 249.61 273.997ZM255.143 279V265.909H256.618V267.92H256.729C256.99 267.261 257.445 266.73 258.092 266.327C258.746 265.918 259.484 265.713 260.308 265.713C260.433 265.713 260.572 265.716 260.726 265.722C260.879 265.727 261.007 265.733 261.109 265.739V267.281C261.041 267.27 260.922 267.253 260.751 267.23C260.581 267.207 260.396 267.196 260.197 267.196C259.516 267.196 258.908 267.341 258.374 267.631C257.845 267.915 257.428 268.31 257.121 268.815C256.814 269.321 256.661 269.898 256.661 270.545V279H255.143ZM270.448 279V265.909H271.923V267.92H272.059C272.32 267.244 272.755 266.713 273.363 266.327C273.977 265.935 274.712 265.739 275.57 265.739C276.474 265.739 277.215 265.952 277.795 266.378C278.38 266.798 278.817 267.378 279.107 268.116H279.218C279.513 267.389 279.994 266.812 280.658 266.386C281.329 265.955 282.141 265.739 283.096 265.739C284.312 265.739 285.272 266.122 285.977 266.889C286.681 267.651 287.033 268.764 287.033 270.23V279H285.516V270.23C285.516 269.196 285.252 268.42 284.724 267.903C284.195 267.386 283.499 267.128 282.636 267.128C281.636 267.128 280.866 267.435 280.326 268.048C279.786 268.662 279.516 269.44 279.516 270.384V279H277.965V270.094C277.965 269.207 277.718 268.491 277.224 267.946C276.729 267.401 276.033 267.128 275.136 267.128C274.533 267.128 273.991 267.276 273.508 267.571C273.031 267.866 272.653 268.278 272.374 268.807C272.102 269.33 271.965 269.932 271.965 270.614V279H270.448ZM296.138 279.273C295.007 279.273 294.007 278.986 293.138 278.412C292.274 277.838 291.598 277.045 291.109 276.034C290.621 275.017 290.376 273.844 290.376 272.514C290.376 271.173 290.621 269.994 291.109 268.977C291.598 267.955 292.274 267.159 293.138 266.591C294.007 266.017 295.007 265.73 296.138 265.73C297.268 265.73 298.266 266.017 299.129 266.591C299.993 267.165 300.669 267.96 301.158 268.977C301.652 269.994 301.899 271.173 301.899 272.514C301.899 273.844 301.655 275.017 301.166 276.034C300.678 277.045 299.999 277.838 299.129 278.412C298.266 278.986 297.268 279.273 296.138 279.273ZM296.138 277.884C297.047 277.884 297.817 277.639 298.447 277.151C299.078 276.662 299.555 276.011 299.879 275.199C300.209 274.386 300.374 273.491 300.374 272.514C300.374 271.537 300.209 270.639 299.879 269.821C299.555 269.003 299.078 268.347 298.447 267.852C297.817 267.358 297.047 267.111 296.138 267.111C295.234 267.111 294.464 267.358 293.828 267.852C293.197 268.347 292.717 269.003 292.388 269.821C292.064 270.639 291.902 271.537 291.902 272.514C291.902 273.491 292.064 274.386 292.388 275.199C292.717 276.011 293.197 276.662 293.828 277.151C294.459 277.639 295.229 277.884 296.138 277.884ZM313.548 273.997V265.909H315.065V279H313.548V276.827H313.428C313.121 277.497 312.636 278.057 311.971 278.506C311.306 278.949 310.494 279.17 309.533 279.17C308.698 279.17 307.957 278.989 307.309 278.625C306.661 278.256 306.153 277.716 305.783 277.006C305.414 276.295 305.229 275.423 305.229 274.389V265.909H306.746V274.295C306.746 275.318 307.048 276.142 307.65 276.767C308.252 277.386 309.025 277.696 309.968 277.696C310.559 277.696 311.127 277.554 311.673 277.27C312.218 276.986 312.667 276.571 313.019 276.026C313.371 275.474 313.548 274.798 313.548 273.997ZM327.876 268.781L326.487 269.173C326.351 268.781 326.158 268.426 325.908 268.108C325.658 267.79 325.331 267.537 324.928 267.349C324.53 267.162 324.036 267.068 323.445 267.068C322.558 267.068 321.831 267.278 321.263 267.699C320.695 268.119 320.411 268.662 320.411 269.327C320.411 269.889 320.604 270.347 320.99 270.699C321.382 271.045 321.984 271.321 322.797 271.526L324.774 272.011C325.871 272.278 326.692 272.702 327.237 273.281C327.788 273.861 328.064 274.588 328.064 275.463C328.064 276.202 327.859 276.858 327.45 277.432C327.041 278.006 326.47 278.457 325.737 278.787C325.01 279.111 324.166 279.273 323.206 279.273C321.928 279.273 320.874 278.986 320.044 278.412C319.214 277.832 318.683 276.997 318.45 275.906L319.908 275.548C320.095 276.327 320.462 276.915 321.007 277.312C321.558 277.71 322.283 277.909 323.18 277.909C324.186 277.909 324.99 277.685 325.592 277.236C326.195 276.781 326.496 276.213 326.496 275.531C326.496 275.003 326.32 274.56 325.967 274.202C325.615 273.838 325.081 273.571 324.365 273.401L322.226 272.889C321.089 272.616 320.249 272.185 319.703 271.594C319.158 271.003 318.885 270.27 318.885 269.395C318.885 268.673 319.081 268.04 319.473 267.494C319.865 266.943 320.405 266.511 321.092 266.199C321.78 265.886 322.564 265.73 323.445 265.73C324.643 265.73 325.601 266.003 326.317 266.548C327.038 267.088 327.558 267.832 327.876 268.781ZM336.678 279.273C335.457 279.273 334.4 278.989 333.508 278.42C332.616 277.847 331.925 277.054 331.437 276.043C330.954 275.026 330.712 273.855 330.712 272.531C330.712 271.213 330.954 270.043 331.437 269.02C331.925 267.991 332.599 267.187 333.457 266.608C334.32 266.023 335.317 265.73 336.448 265.73C337.158 265.73 337.843 265.861 338.502 266.122C339.161 266.378 339.752 266.773 340.275 267.307C340.803 267.835 341.221 268.503 341.528 269.31C341.835 270.111 341.988 271.06 341.988 272.156V272.906H331.761V271.568H340.437C340.437 270.727 340.266 269.972 339.925 269.301C339.59 268.625 339.121 268.091 338.519 267.699C337.923 267.307 337.232 267.111 336.448 267.111C335.619 267.111 334.888 267.332 334.258 267.776C333.627 268.219 333.133 268.804 332.775 269.531C332.423 270.259 332.244 271.054 332.238 271.918V272.719C332.238 273.759 332.417 274.668 332.775 275.446C333.138 276.219 333.653 276.818 334.317 277.244C334.982 277.67 335.769 277.884 336.678 277.884C337.298 277.884 337.84 277.787 338.306 277.594C338.778 277.401 339.173 277.142 339.491 276.818C339.815 276.489 340.059 276.128 340.224 275.736L341.664 276.205C341.465 276.756 341.138 277.264 340.684 277.73C340.235 278.196 339.673 278.571 338.996 278.855C338.326 279.134 337.553 279.273 336.678 279.273ZM352.098 279V265.909H353.624V279H352.098ZM352.874 263.659C352.561 263.659 352.294 263.554 352.072 263.344C351.851 263.128 351.74 262.869 351.74 262.568C351.74 262.267 351.851 262.011 352.072 261.801C352.294 261.585 352.561 261.477 352.874 261.477C353.186 261.477 353.453 261.585 353.675 261.801C353.896 262.011 354.007 262.267 354.007 262.568C354.007 262.869 353.896 263.128 353.675 263.344C353.453 263.554 353.186 263.659 352.874 263.659ZM366.431 268.781L365.042 269.173C364.906 268.781 364.712 268.426 364.462 268.108C364.212 267.79 363.886 267.537 363.482 267.349C363.085 267.162 362.59 267.068 361.999 267.068C361.113 267.068 360.386 267.278 359.817 267.699C359.249 268.119 358.965 268.662 358.965 269.327C358.965 269.889 359.158 270.347 359.545 270.699C359.937 271.045 360.539 271.321 361.352 271.526L363.329 272.011C364.425 272.278 365.246 272.702 365.792 273.281C366.343 273.861 366.619 274.588 366.619 275.463C366.619 276.202 366.414 276.858 366.005 277.432C365.596 278.006 365.025 278.457 364.292 278.787C363.565 279.111 362.721 279.273 361.761 279.273C360.482 279.273 359.428 278.986 358.599 278.412C357.769 277.832 357.238 276.997 357.005 275.906L358.462 275.548C358.65 276.327 359.016 276.915 359.562 277.312C360.113 277.71 360.837 277.909 361.735 277.909C362.741 277.909 363.545 277.685 364.147 277.236C364.749 276.781 365.05 276.213 365.05 275.531C365.05 275.003 364.874 274.56 364.522 274.202C364.17 273.838 363.636 273.571 362.92 273.401L360.781 272.889C359.644 272.616 358.803 272.185 358.258 271.594C357.712 271.003 357.44 270.27 357.44 269.395C357.44 268.673 357.636 268.04 358.028 267.494C358.42 266.943 358.96 266.511 359.647 266.199C360.335 265.886 361.119 265.73 361.999 265.73C363.198 265.73 364.156 266.003 364.871 266.548C365.593 267.088 366.113 267.832 366.431 268.781ZM381.403 279.273C380.33 279.273 379.389 278.989 378.582 278.42C377.776 277.852 377.145 277.06 376.69 276.043C376.241 275.026 376.017 273.841 376.017 272.489C376.017 271.142 376.241 269.963 376.69 268.952C377.145 267.935 377.778 267.145 378.591 266.582C379.403 266.014 380.349 265.73 381.429 265.73C382.224 265.73 382.886 265.872 383.415 266.156C383.943 266.435 384.366 266.781 384.685 267.196C385.003 267.611 385.25 268.014 385.426 268.406H385.562V261.545H387.088V279H385.605V276.571H385.426C385.25 276.969 385 277.378 384.676 277.798C384.352 278.213 383.923 278.562 383.389 278.847C382.861 279.131 382.199 279.273 381.403 279.273ZM381.582 277.884C382.429 277.884 383.151 277.653 383.747 277.193C384.344 276.727 384.798 276.088 385.111 275.276C385.429 274.457 385.588 273.52 385.588 272.463C385.588 271.418 385.432 270.494 385.119 269.693C384.807 268.886 384.352 268.256 383.756 267.801C383.159 267.341 382.435 267.111 381.582 267.111C380.707 267.111 379.969 267.349 379.366 267.827C378.77 268.298 378.315 268.937 378.003 269.744C377.696 270.551 377.543 271.457 377.543 272.463C377.543 273.48 377.699 274.398 378.011 275.216C378.324 276.034 378.778 276.685 379.375 277.168C379.977 277.645 380.713 277.884 381.582 277.884ZM396.702 279.273C395.48 279.273 394.423 278.989 393.531 278.42C392.639 277.847 391.949 277.054 391.46 276.043C390.977 275.026 390.736 273.855 390.736 272.531C390.736 271.213 390.977 270.043 391.46 269.02C391.949 267.991 392.622 267.187 393.48 266.608C394.344 266.023 395.341 265.73 396.472 265.73C397.182 265.73 397.866 265.861 398.526 266.122C399.185 266.378 399.776 266.773 400.298 267.307C400.827 267.835 401.244 268.503 401.551 269.31C401.858 270.111 402.011 271.06 402.011 272.156V272.906H391.784V271.568H400.46C400.46 270.727 400.29 269.972 399.949 269.301C399.614 268.625 399.145 268.091 398.543 267.699C397.946 267.307 397.256 267.111 396.472 267.111C395.642 267.111 394.912 267.332 394.281 267.776C393.651 268.219 393.156 268.804 392.798 269.531C392.446 270.259 392.267 271.054 392.261 271.918V272.719C392.261 273.759 392.44 274.668 392.798 275.446C393.162 276.219 393.676 276.818 394.341 277.244C395.006 277.67 395.793 277.884 396.702 277.884C397.321 277.884 397.864 277.787 398.33 277.594C398.801 277.401 399.196 277.142 399.514 276.818C399.838 276.489 400.082 276.128 400.247 275.736L401.688 276.205C401.489 276.756 401.162 277.264 400.707 277.73C400.259 278.196 399.696 278.571 399.02 278.855C398.349 279.134 397.577 279.273 396.702 279.273ZM409.011 279.298C408.221 279.298 407.499 279.145 406.846 278.838C406.192 278.526 405.673 278.077 405.286 277.491C404.9 276.901 404.707 276.185 404.707 275.344C404.707 274.696 404.829 274.151 405.073 273.707C405.317 273.264 405.664 272.901 406.113 272.616C406.562 272.332 407.093 272.108 407.707 271.943C408.32 271.778 408.996 271.651 409.735 271.56C410.468 271.469 411.087 271.389 411.593 271.321C412.104 271.253 412.494 271.145 412.761 270.997C413.028 270.849 413.161 270.611 413.161 270.281V269.974C413.161 269.082 412.894 268.381 412.36 267.869C411.832 267.352 411.07 267.094 410.076 267.094C409.133 267.094 408.363 267.301 407.766 267.716C407.175 268.131 406.761 268.619 406.522 269.182L405.082 268.662C405.377 267.946 405.786 267.375 406.309 266.949C406.832 266.517 407.417 266.207 408.065 266.02C408.712 265.827 409.369 265.73 410.033 265.73C410.533 265.73 411.053 265.795 411.593 265.926C412.138 266.057 412.644 266.284 413.11 266.608C413.576 266.926 413.954 267.372 414.244 267.946C414.533 268.514 414.678 269.236 414.678 270.111V279H413.161V276.929H413.067C412.886 277.315 412.616 277.69 412.258 278.054C411.9 278.418 411.451 278.716 410.911 278.949C410.371 279.182 409.738 279.298 409.011 279.298ZM409.215 277.909C410.022 277.909 410.721 277.73 411.312 277.372C411.903 277.014 412.357 276.54 412.675 275.949C412.999 275.352 413.161 274.696 413.161 273.98V272.088C413.048 272.196 412.857 272.293 412.59 272.378C412.329 272.463 412.025 272.54 411.678 272.608C411.337 272.67 410.996 272.724 410.656 272.77C410.315 272.815 410.008 272.855 409.735 272.889C408.996 272.98 408.366 273.122 407.843 273.315C407.32 273.509 406.92 273.776 406.641 274.116C406.363 274.452 406.224 274.884 406.224 275.412C406.224 276.207 406.508 276.824 407.076 277.261C407.644 277.693 408.357 277.909 409.215 277.909ZM423.427 279.273C422.353 279.273 421.413 278.989 420.606 278.42C419.799 277.852 419.168 277.06 418.714 276.043C418.265 275.026 418.04 273.841 418.04 272.489C418.04 271.142 418.265 269.963 418.714 268.952C419.168 267.935 419.802 267.145 420.614 266.582C421.427 266.014 422.373 265.73 423.452 265.73C424.248 265.73 424.91 265.872 425.438 266.156C425.967 266.435 426.39 266.781 426.708 267.196C427.026 267.611 427.273 268.014 427.45 268.406H427.586V261.545H429.112V279H427.629V276.571H427.45C427.273 276.969 427.023 277.378 426.7 277.798C426.376 278.213 425.947 278.562 425.413 278.847C424.884 279.131 424.222 279.273 423.427 279.273ZM423.606 277.884C424.452 277.884 425.174 277.653 425.771 277.193C426.367 276.727 426.822 276.088 427.134 275.276C427.452 274.457 427.612 273.52 427.612 272.463C427.612 271.418 427.455 270.494 427.143 269.693C426.83 268.886 426.376 268.256 425.779 267.801C425.183 267.341 424.458 267.111 423.606 267.111C422.731 267.111 421.992 267.349 421.39 267.827C420.793 268.298 420.339 268.937 420.026 269.744C419.719 270.551 419.566 271.457 419.566 272.463C419.566 273.48 419.722 274.398 420.035 275.216C420.347 276.034 420.802 276.685 421.398 277.168C422.001 277.645 422.737 277.884 423.606 277.884ZM445.271 279.273C444.14 279.273 443.14 278.986 442.271 278.412C441.407 277.838 440.731 277.045 440.242 276.034C439.754 275.017 439.509 273.844 439.509 272.514C439.509 271.173 439.754 269.994 440.242 268.977C440.731 267.955 441.407 267.159 442.271 266.591C443.14 266.017 444.14 265.73 445.271 265.73C446.401 265.73 447.398 266.017 448.262 266.591C449.126 267.165 449.802 267.96 450.29 268.977C450.785 269.994 451.032 271.173 451.032 272.514C451.032 273.844 450.788 275.017 450.299 276.034C449.81 277.045 449.131 277.838 448.262 278.412C447.398 278.986 446.401 279.273 445.271 279.273ZM445.271 277.884C446.18 277.884 446.95 277.639 447.58 277.151C448.211 276.662 448.688 276.011 449.012 275.199C449.342 274.386 449.506 273.491 449.506 272.514C449.506 271.537 449.342 270.639 449.012 269.821C448.688 269.003 448.211 268.347 447.58 267.852C446.95 267.358 446.18 267.111 445.271 267.111C444.367 267.111 443.597 267.358 442.961 267.852C442.33 268.347 441.85 269.003 441.521 269.821C441.197 270.639 441.035 271.537 441.035 272.514C441.035 273.491 441.197 274.386 441.521 275.199C441.85 276.011 442.33 276.662 442.961 277.151C443.592 277.639 444.362 277.884 445.271 277.884ZM454.362 279V265.909H455.837V267.92H455.947C456.209 267.261 456.663 266.73 457.311 266.327C457.964 265.918 458.703 265.713 459.527 265.713C459.652 265.713 459.791 265.716 459.945 265.722C460.098 265.727 460.226 265.733 460.328 265.739V267.281C460.26 267.27 460.141 267.253 459.97 267.23C459.8 267.207 459.615 267.196 459.416 267.196C458.734 267.196 458.126 267.341 457.592 267.631C457.064 267.915 456.646 268.31 456.339 268.815C456.033 269.321 455.879 269.898 455.879 270.545V279H454.362ZM182.211 294.909H183.737V309.27C183.737 310.014 183.598 310.656 183.319 311.196C183.047 311.741 182.649 312.162 182.126 312.457C181.603 312.759 180.973 312.909 180.234 312.909C180.177 312.909 180.12 312.909 180.064 312.909C180.007 312.909 179.944 312.906 179.876 312.901L179.893 311.477C179.95 311.477 180.004 311.477 180.055 311.477C180.106 311.477 180.16 311.477 180.217 311.477C180.842 311.477 181.331 311.284 181.683 310.898C182.035 310.511 182.211 309.969 182.211 309.27V294.909ZM182.961 292.659C182.654 292.659 182.387 292.554 182.16 292.344C181.939 292.128 181.828 291.869 181.828 291.568C181.828 291.267 181.939 291.011 182.16 290.801C182.387 290.585 182.654 290.477 182.961 290.477C183.274 290.477 183.541 290.585 183.762 290.801C183.99 291.011 184.103 291.267 184.103 291.568C184.103 291.869 183.99 292.128 183.762 292.344C183.541 292.554 183.274 292.659 182.961 292.659ZM196.067 302.997V294.909H197.584V308H196.067V305.827H195.948C195.641 306.497 195.155 307.057 194.49 307.506C193.826 307.949 193.013 308.17 192.053 308.17C191.218 308.17 190.476 307.989 189.828 307.625C189.181 307.256 188.672 306.716 188.303 306.006C187.934 305.295 187.749 304.423 187.749 303.389V294.909H189.266V303.295C189.266 304.318 189.567 305.142 190.169 305.767C190.772 306.386 191.544 306.696 192.488 306.696C193.078 306.696 193.647 306.554 194.192 306.27C194.738 305.986 195.186 305.571 195.539 305.026C195.891 304.474 196.067 303.798 196.067 302.997ZM210.396 297.781L209.007 298.173C208.87 297.781 208.677 297.426 208.427 297.108C208.177 296.79 207.85 296.537 207.447 296.349C207.049 296.162 206.555 296.068 205.964 296.068C205.078 296.068 204.35 296.278 203.782 296.699C203.214 297.119 202.93 297.662 202.93 298.327C202.93 298.889 203.123 299.347 203.51 299.699C203.902 300.045 204.504 300.321 205.316 300.526L207.294 301.011C208.39 301.278 209.211 301.702 209.757 302.281C210.308 302.861 210.583 303.588 210.583 304.463C210.583 305.202 210.379 305.858 209.97 306.432C209.561 307.006 208.99 307.457 208.257 307.787C207.529 308.111 206.686 308.273 205.725 308.273C204.447 308.273 203.393 307.986 202.564 307.412C201.734 306.832 201.203 305.997 200.97 304.906L202.427 304.548C202.615 305.327 202.981 305.915 203.527 306.312C204.078 306.71 204.802 306.909 205.7 306.909C206.706 306.909 207.51 306.685 208.112 306.236C208.714 305.781 209.015 305.213 209.015 304.531C209.015 304.003 208.839 303.56 208.487 303.202C208.135 302.838 207.6 302.571 206.885 302.401L204.745 301.889C203.609 301.616 202.768 301.185 202.223 300.594C201.677 300.003 201.404 299.27 201.404 298.395C201.404 297.673 201.6 297.04 201.993 296.494C202.385 295.943 202.924 295.511 203.612 295.199C204.299 294.886 205.083 294.73 205.964 294.73C207.163 294.73 208.12 295.003 208.836 295.548C209.558 296.088 210.078 296.832 210.396 297.781ZM219.061 294.909V296.23H212.814V294.909H219.061ZM214.766 291.773H216.292V304.582C216.292 305.128 216.385 305.557 216.573 305.869C216.76 306.176 217.005 306.395 217.306 306.526C217.607 306.651 217.928 306.713 218.269 306.713C218.468 306.713 218.638 306.702 218.78 306.679C218.922 306.651 219.047 306.622 219.155 306.594L219.479 307.966C219.331 308.023 219.15 308.074 218.934 308.119C218.718 308.17 218.451 308.196 218.132 308.196C217.576 308.196 217.039 308.074 216.522 307.83C216.01 307.585 215.59 307.222 215.26 306.739C214.931 306.256 214.766 305.656 214.766 304.94V291.773ZM233.97 308.273C232.896 308.273 231.956 307.989 231.149 307.42C230.342 306.852 229.711 306.06 229.257 305.043C228.808 304.026 228.583 302.841 228.583 301.489C228.583 300.142 228.808 298.963 229.257 297.952C229.711 296.935 230.345 296.145 231.157 295.582C231.97 295.014 232.916 294.73 233.995 294.73C234.791 294.73 235.453 294.872 235.981 295.156C236.51 295.435 236.933 295.781 237.251 296.196C237.569 296.611 237.816 297.014 237.993 297.406H238.129V290.545H239.654V308H238.172V305.571H237.993C237.816 305.969 237.566 306.378 237.243 306.798C236.919 307.213 236.49 307.562 235.956 307.847C235.427 308.131 234.765 308.273 233.97 308.273ZM234.149 306.884C234.995 306.884 235.717 306.653 236.314 306.193C236.91 305.727 237.365 305.088 237.677 304.276C237.995 303.457 238.154 302.52 238.154 301.463C238.154 300.418 237.998 299.494 237.686 298.693C237.373 297.886 236.919 297.256 236.322 296.801C235.725 296.341 235.001 296.111 234.149 296.111C233.274 296.111 232.535 296.349 231.933 296.827C231.336 297.298 230.882 297.937 230.569 298.744C230.262 299.551 230.109 300.457 230.109 301.463C230.109 302.48 230.265 303.398 230.578 304.216C230.89 305.034 231.345 305.685 231.941 306.168C232.544 306.645 233.279 306.884 234.149 306.884ZM243.975 308V294.909H245.45V296.92H245.561C245.822 296.261 246.277 295.73 246.924 295.327C247.578 294.918 248.316 294.713 249.14 294.713C249.265 294.713 249.404 294.716 249.558 294.722C249.711 294.727 249.839 294.733 249.941 294.739V296.281C249.873 296.27 249.754 296.253 249.583 296.23C249.413 296.207 249.228 296.196 249.029 296.196C248.348 296.196 247.74 296.341 247.206 296.631C246.677 296.915 246.26 297.31 245.953 297.815C245.646 298.321 245.493 298.898 245.493 299.545V308H243.975ZM256.186 308.298C255.397 308.298 254.675 308.145 254.022 307.838C253.368 307.526 252.848 307.077 252.462 306.491C252.076 305.901 251.882 305.185 251.882 304.344C251.882 303.696 252.005 303.151 252.249 302.707C252.493 302.264 252.84 301.901 253.289 301.616C253.738 301.332 254.269 301.108 254.882 300.943C255.496 300.778 256.172 300.651 256.911 300.56C257.644 300.469 258.263 300.389 258.769 300.321C259.28 300.253 259.669 300.145 259.936 299.997C260.203 299.849 260.337 299.611 260.337 299.281V298.974C260.337 298.082 260.07 297.381 259.536 296.869C259.007 296.352 258.246 296.094 257.252 296.094C256.309 296.094 255.539 296.301 254.942 296.716C254.351 297.131 253.936 297.619 253.698 298.182L252.257 297.662C252.553 296.946 252.962 296.375 253.485 295.949C254.007 295.517 254.593 295.207 255.24 295.02C255.888 294.827 256.544 294.73 257.209 294.73C257.709 294.73 258.229 294.795 258.769 294.926C259.314 295.057 259.82 295.284 260.286 295.608C260.752 295.926 261.13 296.372 261.419 296.946C261.709 297.514 261.854 298.236 261.854 299.111V308H260.337V305.929H260.243C260.061 306.315 259.792 306.69 259.434 307.054C259.076 307.418 258.627 307.716 258.087 307.949C257.547 308.182 256.914 308.298 256.186 308.298ZM256.391 306.909C257.198 306.909 257.897 306.73 258.488 306.372C259.078 306.014 259.533 305.54 259.851 304.949C260.175 304.352 260.337 303.696 260.337 302.98V301.088C260.223 301.196 260.033 301.293 259.766 301.378C259.505 301.463 259.201 301.54 258.854 301.608C258.513 301.67 258.172 301.724 257.831 301.77C257.49 301.815 257.184 301.855 256.911 301.889C256.172 301.98 255.542 302.122 255.019 302.315C254.496 302.509 254.096 302.776 253.817 303.116C253.539 303.452 253.4 303.884 253.4 304.412C253.4 305.207 253.684 305.824 254.252 306.261C254.82 306.693 255.533 306.909 256.391 306.909ZM265.89 308V294.909H267.364V296.92H267.5C267.762 296.244 268.196 295.713 268.804 295.327C269.418 294.935 270.154 294.739 271.012 294.739C271.915 294.739 272.657 294.952 273.236 295.378C273.821 295.798 274.259 296.378 274.549 297.116H274.659C274.955 296.389 275.435 295.812 276.1 295.386C276.77 294.955 277.583 294.739 278.537 294.739C279.753 294.739 280.713 295.122 281.418 295.889C282.123 296.651 282.475 297.764 282.475 299.23V308H280.958V299.23C280.958 298.196 280.694 297.42 280.165 296.903C279.637 296.386 278.941 296.128 278.077 296.128C277.077 296.128 276.307 296.435 275.767 297.048C275.228 297.662 274.958 298.44 274.958 299.384V308H273.407V299.094C273.407 298.207 273.159 297.491 272.665 296.946C272.171 296.401 271.475 296.128 270.577 296.128C269.975 296.128 269.432 296.276 268.949 296.571C268.472 296.866 268.094 297.278 267.816 297.807C267.543 298.33 267.407 298.932 267.407 299.614V308H265.89ZM290.147 308.298C289.358 308.298 288.636 308.145 287.983 307.838C287.329 307.526 286.809 307.077 286.423 306.491C286.037 305.901 285.843 305.185 285.843 304.344C285.843 303.696 285.966 303.151 286.21 302.707C286.454 302.264 286.801 301.901 287.25 301.616C287.699 301.332 288.23 301.108 288.843 300.943C289.457 300.778 290.133 300.651 290.872 300.56C291.605 300.469 292.224 300.389 292.73 300.321C293.241 300.253 293.63 300.145 293.897 299.997C294.164 299.849 294.298 299.611 294.298 299.281V298.974C294.298 298.082 294.031 297.381 293.497 296.869C292.968 296.352 292.207 296.094 291.213 296.094C290.27 296.094 289.5 296.301 288.903 296.716C288.312 297.131 287.897 297.619 287.659 298.182L286.218 297.662C286.514 296.946 286.923 296.375 287.446 295.949C287.968 295.517 288.554 295.207 289.201 295.02C289.849 294.827 290.505 294.73 291.17 294.73C291.67 294.73 292.19 294.795 292.73 294.926C293.275 295.057 293.781 295.284 294.247 295.608C294.713 295.926 295.091 296.372 295.38 296.946C295.67 297.514 295.815 298.236 295.815 299.111V308H294.298V305.929H294.204C294.022 306.315 293.752 306.69 293.395 307.054C293.037 307.418 292.588 307.716 292.048 307.949C291.508 308.182 290.875 308.298 290.147 308.298ZM290.352 306.909C291.159 306.909 291.858 306.73 292.449 306.372C293.039 306.014 293.494 305.54 293.812 304.949C294.136 304.352 294.298 303.696 294.298 302.98V301.088C294.184 301.196 293.994 301.293 293.727 301.378C293.466 301.463 293.162 301.54 292.815 301.608C292.474 301.67 292.133 301.724 291.792 301.77C291.451 301.815 291.145 301.855 290.872 301.889C290.133 301.98 289.502 302.122 288.98 302.315C288.457 302.509 288.056 302.776 287.778 303.116C287.5 303.452 287.36 303.884 287.36 304.412C287.36 305.207 287.645 305.824 288.213 306.261C288.781 306.693 289.494 306.909 290.352 306.909ZM305.007 294.909V296.23H298.76V294.909H305.007ZM300.711 291.773H302.237V304.582C302.237 305.128 302.331 305.557 302.518 305.869C302.706 306.176 302.95 306.395 303.251 306.526C303.552 306.651 303.873 306.713 304.214 306.713C304.413 306.713 304.583 306.702 304.725 306.679C304.868 306.651 304.993 306.622 305.1 306.594L305.424 307.966C305.277 308.023 305.095 308.074 304.879 308.119C304.663 308.17 304.396 308.196 304.078 308.196C303.521 308.196 302.984 308.074 302.467 307.83C301.956 307.585 301.535 307.222 301.206 306.739C300.876 306.256 300.711 305.656 300.711 304.94V291.773ZM308.469 308V294.909H309.995V308H308.469ZM309.245 292.659C308.932 292.659 308.665 292.554 308.444 292.344C308.222 292.128 308.111 291.869 308.111 291.568C308.111 291.267 308.222 291.011 308.444 290.801C308.665 290.585 308.932 290.477 309.245 290.477C309.557 290.477 309.824 290.585 310.046 290.801C310.267 291.011 310.378 291.267 310.378 291.568C310.378 291.869 310.267 292.128 310.046 292.344C309.824 292.554 309.557 292.659 309.245 292.659ZM319.12 308.273C317.95 308.273 316.93 307.98 316.061 307.395C315.197 306.81 314.527 306.009 314.049 304.991C313.572 303.974 313.333 302.815 313.333 301.514C313.333 300.202 313.575 299.034 314.058 298.011C314.547 296.989 315.223 296.187 316.086 295.608C316.95 295.023 317.953 294.73 319.095 294.73C319.97 294.73 320.762 294.901 321.473 295.241C322.183 295.577 322.768 296.051 323.228 296.665C323.694 297.273 323.987 297.983 324.106 298.795H322.572C322.413 298.057 322.029 297.426 321.422 296.903C320.819 296.375 320.052 296.111 319.12 296.111C318.285 296.111 317.547 296.338 316.904 296.793C316.262 297.241 315.76 297.869 315.396 298.676C315.038 299.477 314.859 300.406 314.859 301.463C314.859 302.526 315.035 303.466 315.387 304.284C315.74 305.097 316.234 305.733 316.87 306.193C317.512 306.653 318.262 306.884 319.12 306.884C319.7 306.884 320.228 306.776 320.706 306.56C321.189 306.338 321.592 306.026 321.916 305.622C322.245 305.219 322.467 304.739 322.581 304.182H324.115C324.001 304.972 323.72 305.676 323.271 306.295C322.828 306.909 322.251 307.392 321.541 307.744C320.836 308.097 320.029 308.273 319.12 308.273ZM328.576 308.128C328.241 308.128 327.951 308.009 327.707 307.77C327.468 307.526 327.349 307.236 327.349 306.901C327.349 306.56 327.468 306.27 327.707 306.031C327.951 305.793 328.241 305.673 328.576 305.673C328.917 305.673 329.207 305.793 329.446 306.031C329.684 306.27 329.804 306.56 329.804 306.901C329.804 307.122 329.747 307.327 329.633 307.514C329.525 307.702 329.377 307.852 329.19 307.966C329.008 308.074 328.804 308.128 328.576 308.128Z" fill="white" fill-opacity="0.6"/>
</svg>
