<svg width="217" height="122" viewBox="0 0 217 122" fill="none" xmlns="http://www.w3.org/2000/svg">
<rect x="1" y="1" width="215" height="120" rx="10" fill="white" fill-opacity="0.05"/>
<rect x="0.75" y="0.75" width="215.5" height="120.5" rx="10.25" stroke="white" stroke-opacity="0.03" stroke-width="0.5"/>
<path d="M43.5 43.68H67.5V19.68H43.5V43.68Z" fill="white"/>
<path d="M78.352 36V27.6H81.364C82.028 27.6 82.576 27.716 83.008 27.948C83.448 28.172 83.772 28.476 83.98 28.86C84.196 29.236 84.304 29.664 84.304 30.144C84.304 30.592 84.2 31.008 83.992 31.392C83.784 31.776 83.46 32.084 83.02 32.316C82.58 32.548 82.016 32.664 81.328 32.664H79.792V36H78.352ZM82.732 36L80.968 32.292H82.528L84.376 36H82.732ZM79.792 31.596H81.268C81.804 31.596 82.196 31.468 82.444 31.212C82.7 30.948 82.828 30.604 82.828 30.18C82.828 29.764 82.704 29.432 82.456 29.184C82.208 28.928 81.812 28.8 81.268 28.8H79.792V31.596ZM85.7934 36V27.6H91.2174V28.764H87.2334V31.176H90.8574V32.316H87.2334V34.836H91.2174V36H85.7934ZM92.1789 36L95.2509 27.6H96.8589L99.9309 36H98.4069L96.0429 29.28L93.6789 36H92.1789ZM93.5469 34.02L93.9309 32.88H98.0709L98.4549 34.02H93.5469ZM101.086 36V27.6H103.798C104.774 27.6 105.578 27.772 106.21 28.116C106.85 28.46 107.322 28.948 107.626 29.58C107.938 30.204 108.094 30.948 108.094 31.812C108.094 32.66 107.938 33.4 107.626 34.032C107.322 34.656 106.85 35.14 106.21 35.484C105.578 35.828 104.774 36 103.798 36H101.086ZM102.526 34.776H103.726C104.454 34.776 105.026 34.66 105.442 34.428C105.866 34.188 106.166 33.848 106.342 33.408C106.526 32.96 106.618 32.428 106.618 31.812C106.618 31.188 106.526 30.656 106.342 30.216C106.166 29.768 105.866 29.424 105.442 29.184C105.026 28.936 104.454 28.812 103.726 28.812H102.526V34.776ZM109.5 36V27.6H111.204L113.892 33.024L116.556 27.6H118.272V36H116.832V30.072L114.456 34.824H113.328L110.94 30.084V36H109.5ZM119.977 36V27.6H125.401V28.764H121.417V31.176H125.041V32.316H121.417V34.836H125.401V36H119.977ZM129.844 36V27.6H135.208V28.764H131.284V31.224H134.488V32.364H131.284V36H129.844ZM137.918 36.144C137.422 36.144 137.01 36.06 136.682 35.892C136.354 35.724 136.11 35.5 135.95 35.22C135.79 34.94 135.71 34.636 135.71 34.308C135.71 33.924 135.806 33.592 135.998 33.312C136.198 33.032 136.49 32.816 136.874 32.664C137.258 32.504 137.73 32.424 138.29 32.424H139.814C139.814 32.104 139.77 31.84 139.682 31.632C139.594 31.416 139.458 31.256 139.274 31.152C139.09 31.048 138.854 30.996 138.566 30.996C138.238 30.996 137.958 31.072 137.726 31.224C137.494 31.368 137.35 31.592 137.294 31.896H135.878C135.926 31.464 136.07 31.096 136.31 30.792C136.55 30.48 136.866 30.24 137.258 30.072C137.658 29.896 138.094 29.808 138.566 29.808C139.134 29.808 139.618 29.908 140.018 30.108C140.418 30.3 140.722 30.58 140.93 30.948C141.146 31.308 141.254 31.744 141.254 32.256V36H140.03L139.886 35.028C139.806 35.188 139.702 35.336 139.574 35.472C139.454 35.608 139.314 35.728 139.154 35.832C138.994 35.928 138.81 36.004 138.602 36.06C138.402 36.116 138.174 36.144 137.918 36.144ZM138.242 35.004C138.474 35.004 138.678 34.964 138.854 34.884C139.038 34.796 139.194 34.676 139.322 34.524C139.458 34.364 139.562 34.188 139.634 33.996C139.706 33.804 139.754 33.6 139.778 33.384V33.36H138.446C138.166 33.36 137.934 33.396 137.75 33.468C137.566 33.532 137.434 33.628 137.354 33.756C137.274 33.884 137.234 34.032 137.234 34.2C137.234 34.368 137.274 34.512 137.354 34.632C137.434 34.752 137.55 34.844 137.702 34.908C137.854 34.972 138.034 35.004 138.242 35.004ZM145.66 36.144C145.068 36.144 144.536 36.012 144.064 35.748C143.6 35.476 143.236 35.104 142.972 34.632C142.716 34.152 142.588 33.608 142.588 33C142.588 32.368 142.716 31.816 142.972 31.344C143.236 30.864 143.6 30.488 144.064 30.216C144.536 29.944 145.072 29.808 145.672 29.808C146.424 29.808 147.056 30.008 147.568 30.408C148.08 30.8 148.408 31.34 148.552 32.028H147.04C146.96 31.724 146.792 31.484 146.536 31.308C146.288 31.132 145.992 31.044 145.648 31.044C145.352 31.044 145.08 31.12 144.832 31.272C144.592 31.424 144.4 31.644 144.256 31.932C144.12 32.22 144.052 32.568 144.052 32.976C144.052 33.288 144.092 33.564 144.172 33.804C144.252 34.044 144.364 34.248 144.508 34.416C144.66 34.576 144.832 34.7 145.024 34.788C145.216 34.876 145.424 34.92 145.648 34.92C145.88 34.92 146.088 34.884 146.272 34.812C146.464 34.732 146.624 34.616 146.752 34.464C146.888 34.312 146.984 34.132 147.04 33.924H148.552C148.408 34.596 148.08 35.136 147.568 35.544C147.056 35.944 146.42 36.144 145.66 36.144ZM152.475 36C152.067 36 151.711 35.936 151.407 35.808C151.111 35.68 150.879 35.468 150.711 35.172C150.543 34.876 150.459 34.476 150.459 33.972V31.164H149.427V29.952H150.459L150.627 28.356H151.899V29.952H153.543V31.164H151.899V33.972C151.899 34.276 151.963 34.488 152.091 34.608C152.227 34.72 152.451 34.776 152.763 34.776H153.507V36H152.475ZM157.565 36.144C156.989 36.144 156.469 36.012 156.005 35.748C155.549 35.476 155.189 35.104 154.925 34.632C154.669 34.152 154.541 33.604 154.541 32.988C154.541 32.356 154.673 31.804 154.937 31.332C155.201 30.852 155.561 30.48 156.017 30.216C156.481 29.944 157.001 29.808 157.577 29.808C158.153 29.808 158.669 29.944 159.125 30.216C159.589 30.48 159.949 30.848 160.205 31.32C160.469 31.792 160.601 32.344 160.601 32.976C160.601 33.608 160.469 34.16 160.205 34.632C159.941 35.104 159.577 35.476 159.113 35.748C158.657 36.012 158.141 36.144 157.565 36.144ZM157.565 34.908C157.853 34.908 158.113 34.836 158.345 34.692C158.585 34.548 158.777 34.332 158.921 34.044C159.065 33.756 159.137 33.4 159.137 32.976C159.137 32.552 159.065 32.2 158.921 31.92C158.785 31.632 158.597 31.416 158.357 31.272C158.125 31.128 157.865 31.056 157.577 31.056C157.297 31.056 157.037 31.128 156.797 31.272C156.557 31.416 156.365 31.632 156.221 31.92C156.077 32.2 156.005 32.552 156.005 32.976C156.005 33.4 156.077 33.756 156.221 34.044C156.365 34.332 156.553 34.548 156.785 34.692C157.025 34.836 157.285 34.908 157.565 34.908ZM162.011 36V29.952H163.295L163.427 31.08C163.571 30.816 163.751 30.592 163.967 30.408C164.183 30.216 164.435 30.068 164.723 29.964C165.019 29.86 165.343 29.808 165.695 29.808V31.332H165.191C164.951 31.332 164.723 31.364 164.507 31.428C164.291 31.484 164.103 31.58 163.943 31.716C163.791 31.844 163.671 32.024 163.583 32.256C163.495 32.48 163.451 32.764 163.451 33.108V36H162.011ZM167.513 38.64L168.989 35.328H168.629L166.217 29.952H167.789L169.589 34.056L171.293 29.952H172.817L169.037 38.64H167.513Z" fill="white"/>
<path d="M34.9 66V57.6H35.908V66H34.9ZM37.6525 66V59.952H38.5645L38.6125 61.008C38.8045 60.632 39.0765 60.34 39.4285 60.132C39.7885 59.916 40.1965 59.808 40.6525 59.808C41.1245 59.808 41.5325 59.904 41.8765 60.096C42.2205 60.28 42.4885 60.564 42.6805 60.948C42.8725 61.324 42.9685 61.804 42.9685 62.388V66H41.9605V62.496C41.9605 61.888 41.8245 61.432 41.5525 61.128C41.2885 60.824 40.9125 60.672 40.4245 60.672C40.0885 60.672 39.7885 60.756 39.5245 60.924C39.2605 61.084 39.0485 61.32 38.8885 61.632C38.7365 61.936 38.6605 62.316 38.6605 62.772V66H37.6525ZM46.8231 66.144C46.3191 66.144 45.8791 66.06 45.5031 65.892C45.1351 65.724 44.8391 65.492 44.6151 65.196C44.3991 64.892 44.2671 64.536 44.2191 64.128H45.2511C45.2911 64.336 45.3751 64.528 45.5031 64.704C45.6311 64.88 45.8031 65.024 46.0191 65.136C46.2431 65.24 46.5151 65.292 46.8351 65.292C47.1151 65.292 47.3471 65.252 47.5311 65.172C47.7151 65.084 47.8511 64.968 47.9391 64.824C48.0351 64.68 48.0831 64.524 48.0831 64.356C48.0831 64.108 48.0231 63.92 47.9031 63.792C47.7911 63.664 47.6231 63.564 47.3991 63.492C47.1751 63.412 46.9031 63.344 46.5831 63.288C46.3191 63.24 46.0591 63.176 45.8031 63.096C45.5471 63.016 45.3191 62.912 45.1191 62.784C44.9191 62.648 44.7591 62.484 44.6391 62.292C44.5271 62.1 44.4711 61.864 44.4711 61.584C44.4711 61.24 44.5591 60.936 44.7351 60.672C44.9111 60.4 45.1631 60.188 45.4911 60.036C45.8271 59.884 46.2151 59.808 46.6551 59.808C47.3031 59.808 47.8271 59.964 48.2271 60.276C48.6271 60.588 48.8631 61.04 48.9351 61.632H47.9391C47.8991 61.328 47.7671 61.092 47.5431 60.924C47.3271 60.748 47.0271 60.66 46.6431 60.66C46.2671 60.66 45.9791 60.736 45.7791 60.888C45.5871 61.04 45.4911 61.24 45.4911 61.488C45.4911 61.648 45.5431 61.792 45.6471 61.92C45.7591 62.04 45.9191 62.144 46.1271 62.232C46.3431 62.32 46.6071 62.392 46.9191 62.448C47.3191 62.52 47.6831 62.616 48.0111 62.736C48.3391 62.856 48.6031 63.036 48.8031 63.276C49.0111 63.508 49.1151 63.84 49.1151 64.272C49.1151 64.648 49.0191 64.976 48.8271 65.256C48.6431 65.536 48.3791 65.756 48.0351 65.916C47.6911 66.068 47.2871 66.144 46.8231 66.144ZM52.673 66C52.313 66 52.001 65.944 51.737 65.832C51.473 65.72 51.269 65.532 51.125 65.268C50.989 64.996 50.921 64.632 50.921 64.176V60.804H49.865V59.952H50.921L51.053 58.488H51.929V59.952H53.681V60.804H51.929V64.176C51.929 64.552 52.005 64.808 52.157 64.944C52.309 65.072 52.577 65.136 52.961 65.136H53.609V66H52.673ZM56.9643 66.144C56.4763 66.144 56.0683 66.06 55.7402 65.892C55.4123 65.716 55.1683 65.488 55.0083 65.208C54.8483 64.92 54.7683 64.608 54.7683 64.272C54.7683 63.864 54.8723 63.52 55.0803 63.24C55.2963 62.952 55.5963 62.736 55.9803 62.592C56.3723 62.44 56.8323 62.364 57.3603 62.364H58.9563C58.9563 61.988 58.8963 61.676 58.7763 61.428C58.6643 61.172 58.4963 60.98 58.2723 60.852C58.0563 60.724 57.7843 60.66 57.4563 60.66C57.0723 60.66 56.7403 60.756 56.4603 60.948C56.1803 61.14 56.0083 61.424 55.9443 61.8H54.9123C54.9603 61.368 55.1043 61.008 55.3443 60.72C55.5923 60.424 55.9043 60.2 56.2803 60.048C56.6563 59.888 57.0483 59.808 57.4563 59.808C58.0163 59.808 58.4803 59.912 58.8483 60.12C59.2243 60.32 59.5043 60.604 59.6883 60.972C59.8723 61.332 59.9643 61.76 59.9643 62.256V66H59.0643L59.0043 64.932C58.9243 65.1 58.8203 65.26 58.6923 65.412C58.5723 65.556 58.4283 65.684 58.2603 65.796C58.0923 65.9 57.9003 65.984 57.6842 66.048C57.4763 66.112 57.2363 66.144 56.9643 66.144ZM57.1203 65.292C57.4003 65.292 57.6523 65.236 57.8763 65.124C58.1083 65.004 58.3043 64.844 58.4643 64.644C58.6243 64.436 58.7443 64.208 58.8243 63.96C58.9123 63.712 58.9563 63.452 58.9563 63.18V63.144H57.4443C57.0523 63.144 56.7363 63.192 56.4963 63.288C56.2563 63.376 56.0843 63.504 55.9803 63.672C55.8763 63.832 55.8243 64.016 55.8243 64.224C55.8243 64.44 55.8723 64.628 55.9683 64.788C56.0723 64.948 56.2203 65.072 56.4123 65.16C56.6123 65.248 56.8483 65.292 57.1203 65.292ZM61.5236 66V59.952H62.4356L62.4836 61.008C62.6756 60.632 62.9476 60.34 63.2996 60.132C63.6596 59.916 64.0676 59.808 64.5236 59.808C64.9956 59.808 65.4036 59.904 65.7476 60.096C66.0916 60.28 66.3596 60.564 66.5516 60.948C66.7436 61.324 66.8396 61.804 66.8396 62.388V66H65.8316V62.496C65.8316 61.888 65.6956 61.432 65.4236 61.128C65.1596 60.824 64.7836 60.672 64.2956 60.672C63.9596 60.672 63.6596 60.756 63.3956 60.924C63.1316 61.084 62.9196 61.32 62.7596 61.632C62.6076 61.936 62.5316 62.316 62.5316 62.772V66H61.5236ZM70.7902 66C70.4302 66 70.1182 65.944 69.8542 65.832C69.5902 65.72 69.3862 65.532 69.2422 65.268C69.1062 64.996 69.0382 64.632 69.0382 64.176V60.804H67.9822V59.952H69.0382L69.1702 58.488H70.0462V59.952H71.7982V60.804H70.0462V64.176C70.0462 64.552 70.1222 64.808 70.2742 64.944C70.4262 65.072 70.6942 65.136 71.0782 65.136H71.7262V66H70.7902ZM73.1134 66V57.36H74.1214V66H73.1134ZM76.4453 68.64L77.9213 65.328H77.5733L75.1973 59.952H76.2893L78.2573 64.572L80.3213 59.952H81.3653L77.5013 68.64H76.4453ZM88.0288 68.784C87.4848 68.784 87.0008 68.712 86.5768 68.568C86.1608 68.432 85.8368 68.22 85.6048 67.932C85.3728 67.644 85.2568 67.288 85.2568 66.864C85.2568 66.68 85.2928 66.484 85.3648 66.276C85.4448 66.068 85.5768 65.864 85.7608 65.664C85.9528 65.464 86.2208 65.284 86.5648 65.124L87.2608 65.532C86.8368 65.708 86.5608 65.908 86.4328 66.132C86.3048 66.364 86.2408 66.576 86.2408 66.768C86.2408 67.032 86.3168 67.252 86.4688 67.428C86.6208 67.604 86.8328 67.736 87.1048 67.824C87.3768 67.912 87.6848 67.956 88.0288 67.956C88.3728 67.956 88.6688 67.908 88.9168 67.812C89.1648 67.716 89.3568 67.58 89.4928 67.404C89.6288 67.228 89.6968 67.02 89.6968 66.78C89.6968 66.5 89.5928 66.264 89.3848 66.072C89.1768 65.888 88.7808 65.78 88.1968 65.748C87.7248 65.716 87.3288 65.672 87.0088 65.616C86.6888 65.56 86.4248 65.496 86.2168 65.424C86.0088 65.344 85.8328 65.256 85.6888 65.16C85.5528 65.064 85.4288 64.964 85.3168 64.86V64.584L86.4808 63.432L87.3568 63.744L86.1568 64.824L86.3128 64.404C86.4008 64.468 86.4848 64.528 86.5648 64.584C86.6448 64.64 86.7528 64.688 86.8888 64.728C87.0248 64.768 87.2128 64.804 87.4528 64.836C87.7008 64.868 88.0248 64.9 88.4248 64.932C88.9768 64.972 89.4168 65.068 89.7448 65.22C90.0808 65.372 90.3208 65.576 90.4648 65.832C90.6168 66.088 90.6928 66.392 90.6928 66.744C90.6928 67.088 90.5968 67.412 90.4048 67.716C90.2208 68.028 89.9328 68.284 89.5408 68.484C89.1488 68.684 88.6448 68.784 88.0288 68.784ZM88.0168 64.104C87.5128 64.104 87.0808 64.008 86.7208 63.816C86.3688 63.624 86.1008 63.368 85.9168 63.048C85.7328 62.72 85.6408 62.356 85.6408 61.956C85.6408 61.556 85.7328 61.196 85.9168 60.876C86.1088 60.556 86.3808 60.3 86.7328 60.108C87.0848 59.908 87.5128 59.808 88.0168 59.808C88.5208 59.808 88.9488 59.908 89.3008 60.108C89.6528 60.3 89.9208 60.556 90.1048 60.876C90.2888 61.196 90.3808 61.556 90.3808 61.956C90.3808 62.356 90.2888 62.72 90.1048 63.048C89.9208 63.368 89.6528 63.624 89.3008 63.816C88.9488 64.008 88.5208 64.104 88.0168 64.104ZM88.0168 63.276C88.4488 63.276 88.7888 63.164 89.0368 62.94C89.2848 62.716 89.4088 62.388 89.4088 61.956C89.4088 61.532 89.2848 61.208 89.0368 60.984C88.7888 60.76 88.4488 60.648 88.0168 60.648C87.5928 60.648 87.2488 60.76 86.9848 60.984C86.7288 61.208 86.6008 61.532 86.6008 61.956C86.6008 62.388 86.7288 62.716 86.9848 62.94C87.2408 63.164 87.5848 63.276 88.0168 63.276ZM89.0008 60.804L88.7008 59.952H91.1728V60.708L89.0008 60.804ZM94.7498 66.144C94.1818 66.144 93.6778 66.012 93.2378 65.748C92.8058 65.484 92.4658 65.116 92.2178 64.644C91.9698 64.164 91.8458 63.608 91.8458 62.976C91.8458 62.336 91.9658 61.78 92.2058 61.308C92.4538 60.836 92.7978 60.468 93.2378 60.204C93.6858 59.94 94.1978 59.808 94.7738 59.808C95.3658 59.808 95.8658 59.94 96.2738 60.204C96.6898 60.468 97.0058 60.816 97.2218 61.248C97.4458 61.672 97.5578 62.14 97.5578 62.652C97.5578 62.732 97.5578 62.816 97.5578 62.904C97.5578 62.992 97.5538 63.092 97.5458 63.204H92.6018V62.424H96.5738C96.5498 61.872 96.3658 61.44 96.0218 61.128C95.6858 60.816 95.2618 60.66 94.7498 60.66C94.4058 60.66 94.0858 60.74 93.7898 60.9C93.5018 61.052 93.2698 61.28 93.0938 61.584C92.9178 61.88 92.8298 62.252 92.8298 62.7V63.036C92.8298 63.532 92.9178 63.948 93.0938 64.284C93.2778 64.62 93.5138 64.872 93.8018 65.04C94.0978 65.208 94.4138 65.292 94.7498 65.292C95.1738 65.292 95.5218 65.2 95.7938 65.016C96.0738 64.824 96.2738 64.568 96.3938 64.248H97.3898C97.2938 64.608 97.1258 64.932 96.8858 65.22C96.6458 65.508 96.3458 65.736 95.9858 65.904C95.6338 66.064 95.2218 66.144 94.7498 66.144ZM98.9181 66V59.952H99.8301L99.8781 61.008C100.07 60.632 100.342 60.34 100.694 60.132C101.054 59.916 101.462 59.808 101.918 59.808C102.39 59.808 102.798 59.904 103.142 60.096C103.486 60.28 103.754 60.564 103.946 60.948C104.138 61.324 104.234 61.804 104.234 62.388V66H103.226V62.496C103.226 61.888 103.09 61.432 102.818 61.128C102.554 60.824 102.178 60.672 101.69 60.672C101.354 60.672 101.054 60.756 100.79 60.924C100.526 61.084 100.314 61.32 100.154 61.632C100.002 61.936 99.9261 62.316 99.9261 62.772V66H98.9181ZM108.461 66.144C107.893 66.144 107.389 66.012 106.949 65.748C106.517 65.484 106.177 65.116 105.929 64.644C105.681 64.164 105.557 63.608 105.557 62.976C105.557 62.336 105.677 61.78 105.917 61.308C106.165 60.836 106.509 60.468 106.949 60.204C107.397 59.94 107.909 59.808 108.485 59.808C109.077 59.808 109.577 59.94 109.985 60.204C110.401 60.468 110.717 60.816 110.933 61.248C111.157 61.672 111.269 62.14 111.269 62.652C111.269 62.732 111.269 62.816 111.269 62.904C111.269 62.992 111.265 63.092 111.257 63.204H106.313V62.424H110.285C110.261 61.872 110.077 61.44 109.733 61.128C109.397 60.816 108.973 60.66 108.461 60.66C108.117 60.66 107.797 60.74 107.501 60.9C107.213 61.052 106.981 61.28 106.805 61.584C106.629 61.88 106.541 62.252 106.541 62.7V63.036C106.541 63.532 106.629 63.948 106.805 64.284C106.989 64.62 107.225 64.872 107.513 65.04C107.809 65.208 108.125 65.292 108.461 65.292C108.885 65.292 109.233 65.2 109.505 65.016C109.785 64.824 109.985 64.568 110.105 64.248H111.101C111.005 64.608 110.837 64.932 110.597 65.22C110.357 65.508 110.057 65.736 109.697 65.904C109.345 66.064 108.933 66.144 108.461 66.144ZM112.629 66V59.952H113.541L113.613 61.104C113.749 60.832 113.921 60.6 114.129 60.408C114.345 60.216 114.601 60.068 114.897 59.964C115.201 59.86 115.545 59.808 115.929 59.808V60.864H115.557C115.301 60.864 115.057 60.9 114.825 60.972C114.593 61.036 114.385 61.144 114.201 61.296C114.025 61.448 113.885 61.656 113.781 61.92C113.685 62.176 113.637 62.496 113.637 62.88V66H112.629ZM119.038 66.144C118.55 66.144 118.142 66.06 117.814 65.892C117.486 65.716 117.242 65.488 117.082 65.208C116.922 64.92 116.842 64.608 116.842 64.272C116.842 63.864 116.946 63.52 117.154 63.24C117.37 62.952 117.67 62.736 118.054 62.592C118.446 62.44 118.906 62.364 119.434 62.364H121.03C121.03 61.988 120.97 61.676 120.85 61.428C120.738 61.172 120.57 60.98 120.346 60.852C120.13 60.724 119.858 60.66 119.53 60.66C119.146 60.66 118.814 60.756 118.534 60.948C118.254 61.14 118.082 61.424 118.018 61.8H116.986C117.034 61.368 117.178 61.008 117.418 60.72C117.666 60.424 117.978 60.2 118.354 60.048C118.73 59.888 119.122 59.808 119.53 59.808C120.09 59.808 120.554 59.912 120.922 60.12C121.298 60.32 121.578 60.604 121.762 60.972C121.946 61.332 122.038 61.76 122.038 62.256V66H121.138L121.078 64.932C120.998 65.1 120.894 65.26 120.766 65.412C120.646 65.556 120.502 65.684 120.334 65.796C120.166 65.9 119.974 65.984 119.758 66.048C119.55 66.112 119.31 66.144 119.038 66.144ZM119.194 65.292C119.474 65.292 119.726 65.236 119.95 65.124C120.182 65.004 120.378 64.844 120.538 64.644C120.698 64.436 120.818 64.208 120.898 63.96C120.986 63.712 121.03 63.452 121.03 63.18V63.144H119.518C119.126 63.144 118.81 63.192 118.57 63.288C118.33 63.376 118.158 63.504 118.054 63.672C117.95 63.832 117.898 64.016 117.898 64.224C117.898 64.44 117.946 64.628 118.042 64.788C118.146 64.948 118.294 65.072 118.486 65.16C118.686 65.248 118.922 65.292 119.194 65.292ZM125.81 66C125.45 66 125.138 65.944 124.874 65.832C124.61 65.72 124.406 65.532 124.262 65.268C124.126 64.996 124.058 64.632 124.058 64.176V60.804H123.002V59.952H124.058L124.19 58.488H125.066V59.952H126.818V60.804H125.066V64.176C125.066 64.552 125.142 64.808 125.294 64.944C125.446 65.072 125.714 65.136 126.098 65.136H126.746V66H125.81ZM130.621 66.144C130.053 66.144 129.549 66.012 129.109 65.748C128.677 65.484 128.337 65.116 128.089 64.644C127.841 64.164 127.717 63.608 127.717 62.976C127.717 62.336 127.837 61.78 128.077 61.308C128.325 60.836 128.669 60.468 129.109 60.204C129.557 59.94 130.069 59.808 130.645 59.808C131.237 59.808 131.737 59.94 132.145 60.204C132.561 60.468 132.877 60.816 133.093 61.248C133.317 61.672 133.429 62.14 133.429 62.652C133.429 62.732 133.429 62.816 133.429 62.904C133.429 62.992 133.425 63.092 133.417 63.204H128.473V62.424H132.445C132.421 61.872 132.237 61.44 131.893 61.128C131.557 60.816 131.133 60.66 130.621 60.66C130.277 60.66 129.957 60.74 129.661 60.9C129.373 61.052 129.141 61.28 128.965 61.584C128.789 61.88 128.701 62.252 128.701 62.7V63.036C128.701 63.532 128.789 63.948 128.965 64.284C129.149 64.62 129.385 64.872 129.673 65.04C129.969 65.208 130.285 65.292 130.621 65.292C131.045 65.292 131.393 65.2 131.665 65.016C131.945 64.824 132.145 64.568 132.265 64.248H133.261C133.165 64.608 132.997 64.932 132.757 65.22C132.517 65.508 132.217 65.736 131.857 65.904C131.505 66.064 131.093 66.144 130.621 66.144ZM139.945 66.144C139.457 66.144 139.049 66.06 138.721 65.892C138.393 65.716 138.149 65.488 137.989 65.208C137.829 64.92 137.749 64.608 137.749 64.272C137.749 63.864 137.853 63.52 138.061 63.24C138.277 62.952 138.577 62.736 138.961 62.592C139.353 62.44 139.813 62.364 140.341 62.364H141.937C141.937 61.988 141.877 61.676 141.757 61.428C141.645 61.172 141.477 60.98 141.253 60.852C141.037 60.724 140.765 60.66 140.437 60.66C140.053 60.66 139.721 60.756 139.441 60.948C139.161 61.14 138.989 61.424 138.925 61.8H137.893C137.941 61.368 138.085 61.008 138.325 60.72C138.573 60.424 138.885 60.2 139.261 60.048C139.637 59.888 140.029 59.808 140.437 59.808C140.997 59.808 141.461 59.912 141.829 60.12C142.205 60.32 142.485 60.604 142.669 60.972C142.853 61.332 142.945 61.76 142.945 62.256V66H142.045L141.985 64.932C141.905 65.1 141.801 65.26 141.673 65.412C141.553 65.556 141.409 65.684 141.241 65.796C141.073 65.9 140.881 65.984 140.665 66.048C140.457 66.112 140.217 66.144 139.945 66.144ZM140.101 65.292C140.381 65.292 140.633 65.236 140.857 65.124C141.089 65.004 141.285 64.844 141.445 64.644C141.605 64.436 141.725 64.208 141.805 63.96C141.893 63.712 141.937 63.452 141.937 63.18V63.144H140.425C140.033 63.144 139.717 63.192 139.477 63.288C139.237 63.376 139.065 63.504 138.961 63.672C138.857 63.832 138.805 64.016 138.805 64.224C138.805 64.44 138.853 64.628 138.949 64.788C139.053 64.948 139.201 65.072 139.393 65.16C139.593 65.248 139.829 65.292 140.101 65.292ZM34.84 84.64V75.952H35.752L35.836 76.936C35.964 76.744 36.128 76.564 36.328 76.396C36.528 76.22 36.768 76.08 37.048 75.976C37.328 75.864 37.648 75.808 38.008 75.808C38.6 75.808 39.112 75.948 39.544 76.228C39.984 76.508 40.324 76.888 40.564 77.368C40.812 77.84 40.936 78.38 40.936 78.988C40.936 79.596 40.812 80.14 40.564 80.62C40.324 81.092 39.984 81.464 39.544 81.736C39.104 82.008 38.588 82.144 37.996 82.144C37.508 82.144 37.076 82.044 36.7 81.844C36.332 81.644 36.048 81.364 35.848 81.004V84.64H34.84ZM37.888 81.268C38.28 81.268 38.628 81.172 38.932 80.98C39.236 80.788 39.472 80.524 39.64 80.188C39.816 79.844 39.904 79.44 39.904 78.976C39.904 78.52 39.816 78.12 39.64 77.776C39.472 77.432 39.236 77.164 38.932 76.972C38.628 76.78 38.28 76.684 37.888 76.684C37.488 76.684 37.136 76.78 36.832 76.972C36.528 77.164 36.292 77.432 36.124 77.776C35.956 78.12 35.872 78.52 35.872 78.976C35.872 79.44 35.956 79.844 36.124 80.188C36.292 80.524 36.528 80.788 36.832 80.98C37.136 81.172 37.488 81.268 37.888 81.268ZM45.0037 82.144C44.4357 82.144 43.9317 82.012 43.4917 81.748C43.0597 81.484 42.7197 81.116 42.4717 80.644C42.2237 80.164 42.0997 79.608 42.0997 78.976C42.0997 78.336 42.2197 77.78 42.4597 77.308C42.7077 76.836 43.0517 76.468 43.4917 76.204C43.9397 75.94 44.4517 75.808 45.0277 75.808C45.6197 75.808 46.1197 75.94 46.5277 76.204C46.9437 76.468 47.2597 76.816 47.4757 77.248C47.6997 77.672 47.8117 78.14 47.8117 78.652C47.8117 78.732 47.8117 78.816 47.8117 78.904C47.8117 78.992 47.8077 79.092 47.7997 79.204H42.8557V78.424H46.8277C46.8037 77.872 46.6197 77.44 46.2757 77.128C45.9397 76.816 45.5157 76.66 45.0037 76.66C44.6597 76.66 44.3397 76.74 44.0437 76.9C43.7557 77.052 43.5237 77.28 43.3477 77.584C43.1717 77.88 43.0837 78.252 43.0837 78.7V79.036C43.0837 79.532 43.1717 79.948 43.3477 80.284C43.5317 80.62 43.7677 80.872 44.0557 81.04C44.3517 81.208 44.6677 81.292 45.0037 81.292C45.4277 81.292 45.7757 81.2 46.0477 81.016C46.3277 80.824 46.5277 80.568 46.6477 80.248H47.6437C47.5477 80.608 47.3797 80.932 47.1397 81.22C46.8997 81.508 46.5997 81.736 46.2397 81.904C45.8877 82.064 45.4757 82.144 45.0037 82.144ZM49.172 82V75.952H50.084L50.156 77.104C50.292 76.832 50.464 76.6 50.672 76.408C50.888 76.216 51.144 76.068 51.44 75.964C51.744 75.86 52.088 75.808 52.472 75.808V76.864H52.1C51.844 76.864 51.6 76.9 51.368 76.972C51.136 77.036 50.928 77.144 50.744 77.296C50.568 77.448 50.428 77.656 50.324 77.92C50.228 78.176 50.18 78.496 50.18 78.88V82H49.172ZM55.8934 82.144C55.3894 82.144 54.9494 82.06 54.5734 81.892C54.2054 81.724 53.9094 81.492 53.6854 81.196C53.4694 80.892 53.3374 80.536 53.2894 80.128H54.3214C54.3614 80.336 54.4454 80.528 54.5734 80.704C54.7014 80.88 54.8734 81.024 55.0894 81.136C55.3134 81.24 55.5854 81.292 55.9054 81.292C56.1854 81.292 56.4174 81.252 56.6014 81.172C56.7854 81.084 56.9214 80.968 57.0094 80.824C57.1054 80.68 57.1534 80.524 57.1534 80.356C57.1534 80.108 57.0934 79.92 56.9734 79.792C56.8614 79.664 56.6934 79.564 56.4694 79.492C56.2454 79.412 55.9734 79.344 55.6534 79.288C55.3894 79.24 55.1294 79.176 54.8734 79.096C54.6174 79.016 54.3894 78.912 54.1894 78.784C53.9894 78.648 53.8294 78.484 53.7094 78.292C53.5974 78.1 53.5414 77.864 53.5414 77.584C53.5414 77.24 53.6294 76.936 53.8054 76.672C53.9814 76.4 54.2334 76.188 54.5614 76.036C54.8974 75.884 55.2854 75.808 55.7254 75.808C56.3734 75.808 56.8974 75.964 57.2974 76.276C57.6974 76.588 57.9334 77.04 58.0054 77.632H57.0094C56.9694 77.328 56.8374 77.092 56.6134 76.924C56.3974 76.748 56.0974 76.66 55.7134 76.66C55.3374 76.66 55.0494 76.736 54.8494 76.888C54.6574 77.04 54.5614 77.24 54.5614 77.488C54.5614 77.648 54.6134 77.792 54.7174 77.92C54.8294 78.04 54.9894 78.144 55.1974 78.232C55.4134 78.32 55.6774 78.392 55.9894 78.448C56.3894 78.52 56.7534 78.616 57.0814 78.736C57.4094 78.856 57.6734 79.036 57.8734 79.276C58.0814 79.508 58.1854 79.84 58.1854 80.272C58.1854 80.648 58.0894 80.976 57.8974 81.256C57.7134 81.536 57.4494 81.756 57.1054 81.916C56.7614 82.068 56.3574 82.144 55.8934 82.144ZM62.3369 82.144C61.7769 82.144 61.2729 82.016 60.8249 81.76C60.3769 81.496 60.0249 81.128 59.7689 80.656C59.5129 80.176 59.3849 79.62 59.3849 78.988C59.3849 78.34 59.5129 77.78 59.7689 77.308C60.0329 76.828 60.3889 76.46 60.8369 76.204C61.2929 75.94 61.8009 75.808 62.3609 75.808C62.9369 75.808 63.4449 75.94 63.8849 76.204C64.3329 76.46 64.6849 76.828 64.9409 77.308C65.2049 77.78 65.3369 78.336 65.3369 78.976C65.3369 79.616 65.2049 80.176 64.9409 80.656C64.6769 81.128 64.3209 81.496 63.8729 81.76C63.4249 82.016 62.9129 82.144 62.3369 82.144ZM62.3489 81.28C62.6929 81.28 63.0129 81.196 63.3089 81.028C63.6049 80.852 63.8449 80.592 64.0289 80.248C64.2129 79.904 64.3049 79.48 64.3049 78.976C64.3049 78.464 64.2129 78.04 64.0289 77.704C63.8529 77.36 63.6169 77.104 63.3209 76.936C63.0329 76.76 62.7129 76.672 62.3609 76.672C62.0249 76.672 61.7049 76.76 61.4009 76.936C61.1049 77.104 60.8649 77.36 60.6809 77.704C60.5049 78.04 60.4169 78.464 60.4169 78.976C60.4169 79.48 60.5049 79.904 60.6809 80.248C60.8649 80.592 61.1009 80.852 61.3889 81.028C61.6849 81.196 62.0049 81.28 62.3489 81.28ZM66.7502 82V75.952H67.6622L67.7102 77.008C67.9022 76.632 68.1742 76.34 68.5262 76.132C68.8862 75.916 69.2942 75.808 69.7502 75.808C70.2222 75.808 70.6302 75.904 70.9742 76.096C71.3182 76.28 71.5862 76.564 71.7782 76.948C71.9702 77.324 72.0662 77.804 72.0662 78.388V82H71.0582V78.496C71.0582 77.888 70.9222 77.432 70.6502 77.128C70.3862 76.824 70.0102 76.672 69.5222 76.672C69.1862 76.672 68.8862 76.756 68.6222 76.924C68.3582 77.084 68.1462 77.32 67.9862 77.632C67.8342 77.936 67.7582 78.316 67.7582 78.772V82H66.7502ZM75.6088 82.144C75.1208 82.144 74.7128 82.06 74.3848 81.892C74.0568 81.716 73.8128 81.488 73.6528 81.208C73.4928 80.92 73.4128 80.608 73.4128 80.272C73.4128 79.864 73.5168 79.52 73.7248 79.24C73.9408 78.952 74.2408 78.736 74.6248 78.592C75.0168 78.44 75.4768 78.364 76.0048 78.364H77.6008C77.6008 77.988 77.5408 77.676 77.4208 77.428C77.3088 77.172 77.1408 76.98 76.9168 76.852C76.7008 76.724 76.4288 76.66 76.1008 76.66C75.7168 76.66 75.3848 76.756 75.1048 76.948C74.8248 77.14 74.6528 77.424 74.5888 77.8H73.5568C73.6048 77.368 73.7488 77.008 73.9888 76.72C74.2368 76.424 74.5488 76.2 74.9248 76.048C75.3008 75.888 75.6928 75.808 76.1008 75.808C76.6608 75.808 77.1248 75.912 77.4928 76.12C77.8688 76.32 78.1488 76.604 78.3328 76.972C78.5168 77.332 78.6088 77.76 78.6088 78.256V82H77.7088L77.6488 80.932C77.5688 81.1 77.4648 81.26 77.3368 81.412C77.2168 81.556 77.0728 81.684 76.9048 81.796C76.7368 81.9 76.5448 81.984 76.3288 82.048C76.1208 82.112 75.8808 82.144 75.6088 82.144ZM75.7648 81.292C76.0448 81.292 76.2968 81.236 76.5208 81.124C76.7528 81.004 76.9488 80.844 77.1088 80.644C77.2688 80.436 77.3888 80.208 77.4688 79.96C77.5568 79.712 77.6008 79.452 77.6008 79.18V79.144H76.0888C75.6968 79.144 75.3808 79.192 75.1408 79.288C74.9008 79.376 74.7288 79.504 74.6248 79.672C74.5208 79.832 74.4688 80.016 74.4688 80.224C74.4688 80.44 74.5168 80.628 74.6128 80.788C74.7168 80.948 74.8648 81.072 75.0568 81.16C75.2568 81.248 75.4928 81.292 75.7648 81.292ZM80.1681 82V73.36H81.1761V82H80.1681ZM86.0875 82V73.6H88.7995C89.4555 73.6 89.9915 73.712 90.4075 73.936C90.8235 74.152 91.1315 74.444 91.3315 74.812C91.5315 75.18 91.6315 75.596 91.6315 76.06C91.6315 76.508 91.5275 76.92 91.3195 77.296C91.1195 77.672 90.8075 77.972 90.3835 78.196C89.9595 78.42 89.4155 78.532 88.7515 78.532H87.0955V82H86.0875ZM90.5275 82L88.6795 78.244H89.8075L91.7155 82H90.5275ZM87.0955 77.74H88.7275C89.3675 77.74 89.8355 77.584 90.1315 77.272C90.4355 76.96 90.5875 76.56 90.5875 76.072C90.5875 75.576 90.4395 75.184 90.1435 74.896C89.8555 74.6 89.3795 74.452 88.7155 74.452H87.0955V77.74ZM93.2125 82V73.6H98.4085V74.428H94.2205V77.356H98.0485V78.172H94.2205V81.172H98.4085V82H93.2125ZM99.4577 82L102.554 73.6H103.622L106.706 82H105.638L103.082 74.86L100.514 82H99.4577ZM100.874 79.84L101.162 79.024H104.966L105.254 79.84H100.874ZM107.966 82V73.6H110.438C111.422 73.6 112.23 73.772 112.862 74.116C113.502 74.452 113.974 74.936 114.278 75.568C114.59 76.192 114.746 76.944 114.746 77.824C114.746 78.688 114.59 79.432 114.278 80.056C113.974 80.68 113.502 81.16 112.862 81.496C112.23 81.832 111.422 82 110.438 82H107.966ZM108.974 81.16H110.414C111.23 81.16 111.878 81.028 112.358 80.764C112.838 80.492 113.182 80.108 113.39 79.612C113.598 79.108 113.702 78.512 113.702 77.824C113.702 77.12 113.598 76.516 113.39 76.012C113.182 75.508 112.838 75.12 112.358 74.848C111.878 74.576 111.23 74.44 110.414 74.44H108.974V81.16ZM116.228 82V73.6H117.404L120.368 79.468L123.344 73.6H124.532V82H123.524V75.4L120.752 80.824H119.996L117.236 75.424V82H116.228ZM126.318 82V73.6H131.514V74.428H127.326V77.356H131.154V78.172H127.326V81.172H131.514V82H126.318ZM139.399 82.144C139.055 82.144 138.743 82.096 138.463 82C138.191 81.896 137.951 81.76 137.743 81.592C137.535 81.424 137.363 81.228 137.227 81.004L137.143 82H136.231V73.36H137.239V76.948C137.431 76.636 137.707 76.368 138.067 76.144C138.427 75.92 138.871 75.808 139.399 75.808C139.983 75.808 140.495 75.948 140.935 76.228C141.375 76.5 141.715 76.876 141.955 77.356C142.203 77.828 142.327 78.368 142.327 78.976C142.327 79.584 142.203 80.128 141.955 80.608C141.715 81.088 141.375 81.464 140.935 81.736C140.495 82.008 139.983 82.144 139.399 82.144ZM139.279 81.268C139.671 81.268 140.019 81.172 140.323 80.98C140.627 80.788 140.863 80.524 141.031 80.188C141.207 79.844 141.295 79.44 141.295 78.976C141.295 78.52 141.207 78.12 141.031 77.776C140.863 77.432 140.627 77.164 140.323 76.972C140.019 76.78 139.671 76.684 139.279 76.684C138.879 76.684 138.527 76.78 138.223 76.972C137.919 77.164 137.683 77.432 137.515 77.776C137.347 78.12 137.263 78.52 137.263 78.976C137.263 79.44 137.347 79.844 137.515 80.188C137.683 80.524 137.919 80.788 138.223 80.98C138.527 81.172 138.879 81.268 139.279 81.268ZM143.922 84.64L145.398 81.328H145.05L142.674 75.952H143.766L145.734 80.572L147.798 75.952H148.842L144.978 84.64H143.922ZM36.808 98.144C36.32 98.144 35.912 98.06 35.584 97.892C35.256 97.716 35.012 97.488 34.852 97.208C34.692 96.92 34.612 96.608 34.612 96.272C34.612 95.864 34.716 95.52 34.924 95.24C35.14 94.952 35.44 94.736 35.824 94.592C36.216 94.44 36.676 94.364 37.204 94.364H38.8C38.8 93.988 38.74 93.676 38.62 93.428C38.508 93.172 38.34 92.98 38.116 92.852C37.9 92.724 37.628 92.66 37.3 92.66C36.916 92.66 36.584 92.756 36.304 92.948C36.024 93.14 35.852 93.424 35.788 93.8H34.756C34.804 93.368 34.948 93.008 35.188 92.72C35.436 92.424 35.748 92.2 36.124 92.048C36.5 91.888 36.892 91.808 37.3 91.808C37.86 91.808 38.324 91.912 38.692 92.12C39.068 92.32 39.348 92.604 39.532 92.972C39.716 93.332 39.808 93.76 39.808 94.256V98H38.908L38.848 96.932C38.768 97.1 38.664 97.26 38.536 97.412C38.416 97.556 38.272 97.684 38.104 97.796C37.936 97.9 37.744 97.984 37.528 98.048C37.32 98.112 37.08 98.144 36.808 98.144ZM36.964 97.292C37.244 97.292 37.496 97.236 37.72 97.124C37.952 97.004 38.148 96.844 38.308 96.644C38.468 96.436 38.588 96.208 38.668 95.96C38.756 95.712 38.8 95.452 38.8 95.18V95.144H37.288C36.896 95.144 36.58 95.192 36.34 95.288C36.1 95.376 35.928 95.504 35.824 95.672C35.72 95.832 35.668 96.016 35.668 96.224C35.668 96.44 35.716 96.628 35.812 96.788C35.916 96.948 36.064 97.072 36.256 97.16C36.456 97.248 36.692 97.292 36.964 97.292ZM41.3673 98V91.952H42.2793L42.3273 93.008C42.5193 92.632 42.7913 92.34 43.1433 92.132C43.5033 91.916 43.9113 91.808 44.3673 91.808C44.8393 91.808 45.2473 91.904 45.5913 92.096C45.9353 92.28 46.2033 92.564 46.3953 92.948C46.5873 93.324 46.6833 93.804 46.6833 94.388V98H45.6753V94.496C45.6753 93.888 45.5393 93.432 45.2673 93.128C45.0033 92.824 44.6273 92.672 44.1393 92.672C43.8033 92.672 43.5033 92.756 43.2393 92.924C42.9753 93.084 42.7633 93.32 42.6033 93.632C42.4513 93.936 42.3753 94.316 42.3753 94.772V98H41.3673ZM50.538 98.144C50.034 98.144 49.594 98.06 49.218 97.892C48.85 97.724 48.554 97.492 48.33 97.196C48.114 96.892 47.982 96.536 47.934 96.128H48.966C49.006 96.336 49.09 96.528 49.218 96.704C49.346 96.88 49.518 97.024 49.734 97.136C49.958 97.24 50.23 97.292 50.55 97.292C50.83 97.292 51.062 97.252 51.246 97.172C51.43 97.084 51.566 96.968 51.654 96.824C51.75 96.68 51.798 96.524 51.798 96.356C51.798 96.108 51.738 95.92 51.618 95.792C51.506 95.664 51.338 95.564 51.114 95.492C50.89 95.412 50.618 95.344 50.298 95.288C50.034 95.24 49.774 95.176 49.518 95.096C49.262 95.016 49.034 94.912 48.834 94.784C48.634 94.648 48.474 94.484 48.354 94.292C48.242 94.1 48.186 93.864 48.186 93.584C48.186 93.24 48.274 92.936 48.45 92.672C48.626 92.4 48.878 92.188 49.206 92.036C49.542 91.884 49.93 91.808 50.37 91.808C51.018 91.808 51.542 91.964 51.942 92.276C52.342 92.588 52.578 93.04 52.65 93.632H51.654C51.614 93.328 51.482 93.092 51.258 92.924C51.042 92.748 50.742 92.66 50.358 92.66C49.982 92.66 49.694 92.736 49.494 92.888C49.302 93.04 49.206 93.24 49.206 93.488C49.206 93.648 49.258 93.792 49.362 93.92C49.474 94.04 49.634 94.144 49.842 94.232C50.058 94.32 50.322 94.392 50.634 94.448C51.034 94.52 51.398 94.616 51.726 94.736C52.054 94.856 52.318 95.036 52.518 95.276C52.726 95.508 52.83 95.84 52.83 96.272C52.83 96.648 52.734 96.976 52.542 97.256C52.358 97.536 52.094 97.756 51.75 97.916C51.406 98.068 51.002 98.144 50.538 98.144ZM55.2828 98L53.5068 91.952H54.5148L55.8948 97.052H55.7148L57.2148 91.952H58.3548L59.8788 97.04L59.6868 97.052L61.0548 91.952H62.0748L60.3108 98H59.2787L57.6948 92.672H57.8988L56.3148 98H55.2828ZM65.6404 98.144C65.0724 98.144 64.5684 98.012 64.1284 97.748C63.6964 97.484 63.3564 97.116 63.1084 96.644C62.8604 96.164 62.7364 95.608 62.7364 94.976C62.7364 94.336 62.8564 93.78 63.0964 93.308C63.3444 92.836 63.6884 92.468 64.1284 92.204C64.5764 91.94 65.0884 91.808 65.6644 91.808C66.2564 91.808 66.7564 91.94 67.1644 92.204C67.5804 92.468 67.8964 92.816 68.1124 93.248C68.3364 93.672 68.4484 94.14 68.4484 94.652C68.4484 94.732 68.4484 94.816 68.4484 94.904C68.4484 94.992 68.4444 95.092 68.4364 95.204H63.4924V94.424H67.4644C67.4404 93.872 67.2564 93.44 66.9124 93.128C66.5764 92.816 66.1524 92.66 65.6404 92.66C65.2964 92.66 64.9764 92.74 64.6804 92.9C64.3924 93.052 64.1604 93.28 63.9844 93.584C63.8084 93.88 63.7204 94.252 63.7204 94.7V95.036C63.7204 95.532 63.8084 95.948 63.9844 96.284C64.1684 96.62 64.4044 96.872 64.6924 97.04C64.9884 97.208 65.3044 97.292 65.6404 97.292C66.0644 97.292 66.4124 97.2 66.6844 97.016C66.9644 96.824 67.1644 96.568 67.2844 96.248H68.2804C68.1844 96.608 68.0164 96.932 67.7764 97.22C67.5364 97.508 67.2364 97.736 66.8764 97.904C66.5244 98.064 66.1124 98.144 65.6404 98.144ZM69.8088 98V91.952H70.7208L70.7928 93.104C70.9288 92.832 71.1008 92.6 71.3088 92.408C71.5248 92.216 71.7808 92.068 72.0768 91.964C72.3808 91.86 72.7248 91.808 73.1088 91.808V92.864H72.7368C72.4808 92.864 72.2368 92.9 72.0048 92.972C71.7728 93.036 71.5648 93.144 71.3808 93.296C71.2048 93.448 71.0648 93.656 70.9608 93.92C70.8648 94.176 70.8168 94.496 70.8168 94.88V98H69.8088ZM74.3462 98V91.952H75.3542V98H74.3462ZM74.8502 90.668C74.6502 90.668 74.4822 90.604 74.3462 90.476C74.2182 90.34 74.1542 90.172 74.1542 89.972C74.1542 89.772 74.2182 89.612 74.3462 89.492C74.4822 89.364 74.6502 89.3 74.8502 89.3C75.0422 89.3 75.2062 89.364 75.3422 89.492C75.4782 89.612 75.5462 89.772 75.5462 89.972C75.5462 90.172 75.4782 90.34 75.3422 90.476C75.2062 90.604 75.0422 90.668 74.8502 90.668ZM77.133 98V91.952H78.045L78.093 93.008C78.285 92.632 78.557 92.34 78.909 92.132C79.269 91.916 79.677 91.808 80.133 91.808C80.605 91.808 81.013 91.904 81.357 92.096C81.701 92.28 81.969 92.564 82.161 92.948C82.353 93.324 82.449 93.804 82.449 94.388V98H81.441V94.496C81.441 93.888 81.305 93.432 81.033 93.128C80.769 92.824 80.393 92.672 79.905 92.672C79.569 92.672 79.269 92.756 79.005 92.924C78.741 93.084 78.529 93.32 78.369 93.632C78.217 93.936 78.141 94.316 78.141 94.772V98H77.133ZM86.4116 100.784C85.8676 100.784 85.3836 100.712 84.9596 100.568C84.5436 100.432 84.2196 100.22 83.9876 99.932C83.7556 99.644 83.6396 99.288 83.6396 98.864C83.6396 98.68 83.6756 98.484 83.7476 98.276C83.8276 98.068 83.9596 97.864 84.1436 97.664C84.3356 97.464 84.6036 97.284 84.9476 97.124L85.6436 97.532C85.2196 97.708 84.9436 97.908 84.8156 98.132C84.6876 98.364 84.6236 98.576 84.6236 98.768C84.6236 99.032 84.6996 99.252 84.8516 99.428C85.0036 99.604 85.2156 99.736 85.4876 99.824C85.7596 99.912 86.0676 99.956 86.4116 99.956C86.7556 99.956 87.0516 99.908 87.2996 99.812C87.5476 99.716 87.7396 99.58 87.8756 99.404C88.0116 99.228 88.0796 99.02 88.0796 98.78C88.0796 98.5 87.9756 98.264 87.7676 98.072C87.5596 97.888 87.1636 97.78 86.5796 97.748C86.1076 97.716 85.7116 97.672 85.3916 97.616C85.0716 97.56 84.8076 97.496 84.5996 97.424C84.3916 97.344 84.2156 97.256 84.0716 97.16C83.9356 97.064 83.8116 96.964 83.6996 96.86V96.584L84.8636 95.432L85.7396 95.744L84.5396 96.824L84.6956 96.404C84.7836 96.468 84.8676 96.528 84.9476 96.584C85.0276 96.64 85.1356 96.688 85.2716 96.728C85.4076 96.768 85.5956 96.804 85.8356 96.836C86.0836 96.868 86.4076 96.9 86.8076 96.932C87.3596 96.972 87.7996 97.068 88.1276 97.22C88.4636 97.372 88.7036 97.576 88.8476 97.832C88.9996 98.088 89.0756 98.392 89.0756 98.744C89.0756 99.088 88.9796 99.412 88.7876 99.716C88.6036 100.028 88.3156 100.284 87.9236 100.484C87.5316 100.684 87.0276 100.784 86.4116 100.784ZM86.3996 96.104C85.8956 96.104 85.4636 96.008 85.1036 95.816C84.7516 95.624 84.4836 95.368 84.2996 95.048C84.1156 94.72 84.0236 94.356 84.0236 93.956C84.0236 93.556 84.1156 93.196 84.2996 92.876C84.4916 92.556 84.7636 92.3 85.1156 92.108C85.4676 91.908 85.8956 91.808 86.3996 91.808C86.9036 91.808 87.3316 91.908 87.6836 92.108C88.0356 92.3 88.3036 92.556 88.4876 92.876C88.6716 93.196 88.7636 93.556 88.7636 93.956C88.7636 94.356 88.6716 94.72 88.4876 95.048C88.3036 95.368 88.0356 95.624 87.6836 95.816C87.3316 96.008 86.9036 96.104 86.3996 96.104ZM86.3996 95.276C86.8316 95.276 87.1716 95.164 87.4196 94.94C87.6676 94.716 87.7916 94.388 87.7916 93.956C87.7916 93.532 87.6676 93.208 87.4196 92.984C87.1716 92.76 86.8316 92.648 86.3996 92.648C85.9756 92.648 85.6316 92.76 85.3676 92.984C85.1116 93.208 84.9836 93.532 84.9836 93.956C84.9836 94.388 85.1116 94.716 85.3676 94.94C85.6236 95.164 85.9676 95.276 86.3996 95.276ZM87.3836 92.804L87.0836 91.952H89.5556V92.708L87.3836 92.804ZM95.8705 98.144C95.3825 98.144 94.9745 98.06 94.6465 97.892C94.3185 97.716 94.0745 97.488 93.9145 97.208C93.7545 96.92 93.6745 96.608 93.6745 96.272C93.6745 95.864 93.7785 95.52 93.9865 95.24C94.2025 94.952 94.5025 94.736 94.8865 94.592C95.2785 94.44 95.7385 94.364 96.2665 94.364H97.8625C97.8625 93.988 97.8025 93.676 97.6825 93.428C97.5705 93.172 97.4025 92.98 97.1785 92.852C96.9625 92.724 96.6905 92.66 96.3625 92.66C95.9785 92.66 95.6465 92.756 95.3665 92.948C95.0865 93.14 94.9145 93.424 94.8505 93.8H93.8185C93.8665 93.368 94.0105 93.008 94.2505 92.72C94.4985 92.424 94.8105 92.2 95.1865 92.048C95.5625 91.888 95.9545 91.808 96.3625 91.808C96.9225 91.808 97.3865 91.912 97.7545 92.12C98.1305 92.32 98.4105 92.604 98.5945 92.972C98.7785 93.332 98.8705 93.76 98.8705 94.256V98H97.9705L97.9105 96.932C97.8305 97.1 97.7265 97.26 97.5985 97.412C97.4785 97.556 97.3345 97.684 97.1665 97.796C96.9985 97.9 96.8065 97.984 96.5905 98.048C96.3825 98.112 96.1425 98.144 95.8705 98.144ZM96.0265 97.292C96.3065 97.292 96.5585 97.236 96.7825 97.124C97.0145 97.004 97.2105 96.844 97.3705 96.644C97.5305 96.436 97.6505 96.208 97.7305 95.96C97.8185 95.712 97.8625 95.452 97.8625 95.18V95.144H96.3505C95.9585 95.144 95.6425 95.192 95.4025 95.288C95.1625 95.376 94.9905 95.504 94.8865 95.672C94.7825 95.832 94.7305 96.016 94.7305 96.224C94.7305 96.44 94.7785 96.628 94.8745 96.788C94.9785 96.948 95.1265 97.072 95.3185 97.16C95.5185 97.248 95.7545 97.292 96.0265 97.292ZM103.953 98V91.016C103.953 90.632 104.017 90.32 104.145 90.08C104.273 89.832 104.461 89.652 104.709 89.54C104.965 89.42 105.277 89.36 105.645 89.36H106.329V90.224H105.801C105.505 90.224 105.289 90.284 105.153 90.404C105.025 90.524 104.961 90.736 104.961 91.04V98H103.953ZM103.029 92.804V91.952H106.485V92.804H103.029ZM110.113 98.144C109.545 98.144 109.041 98.012 108.601 97.748C108.169 97.484 107.829 97.116 107.581 96.644C107.333 96.164 107.209 95.608 107.209 94.976C107.209 94.336 107.329 93.78 107.569 93.308C107.817 92.836 108.161 92.468 108.601 92.204C109.049 91.94 109.561 91.808 110.137 91.808C110.729 91.808 111.229 91.94 111.637 92.204C112.053 92.468 112.369 92.816 112.585 93.248C112.809 93.672 112.921 94.14 112.921 94.652C112.921 94.732 112.921 94.816 112.921 94.904C112.921 94.992 112.917 95.092 112.909 95.204H107.965V94.424H111.937C111.913 93.872 111.729 93.44 111.385 93.128C111.049 92.816 110.625 92.66 110.113 92.66C109.769 92.66 109.449 92.74 109.153 92.9C108.865 93.052 108.633 93.28 108.457 93.584C108.281 93.88 108.193 94.252 108.193 94.7V95.036C108.193 95.532 108.281 95.948 108.457 96.284C108.641 96.62 108.877 96.872 109.165 97.04C109.461 97.208 109.777 97.292 110.113 97.292C110.537 97.292 110.885 97.2 111.157 97.016C111.437 96.824 111.637 96.568 111.757 96.248H112.753C112.657 96.608 112.489 96.932 112.249 97.22C112.009 97.508 111.709 97.736 111.349 97.904C110.997 98.064 110.585 98.144 110.113 98.144ZM115.271 98L113.495 91.952H114.503L115.883 97.052H115.703L117.203 91.952H118.343L119.867 97.04L119.675 97.052L121.043 91.952H122.063L120.299 98H119.267L117.683 92.672H117.887L116.303 98H115.271ZM131.223 100.64V97.016C131.031 97.328 130.751 97.596 130.383 97.82C130.023 98.036 129.583 98.144 129.063 98.144C128.471 98.144 127.955 98.008 127.515 97.736C127.075 97.456 126.735 97.08 126.495 96.608C126.255 96.128 126.135 95.584 126.135 94.976C126.135 94.368 126.255 93.828 126.495 93.356C126.735 92.876 127.075 92.5 127.515 92.228C127.963 91.948 128.479 91.808 129.063 91.808C129.407 91.808 129.715 91.856 129.987 91.952C130.267 92.048 130.511 92.184 130.719 92.36C130.927 92.528 131.095 92.724 131.223 92.948L131.319 91.952H132.231V100.64H131.223ZM129.171 97.268C129.571 97.268 129.923 97.172 130.227 96.98C130.531 96.788 130.767 96.524 130.935 96.188C131.103 95.844 131.187 95.44 131.187 94.976C131.187 94.52 131.103 94.12 130.935 93.776C130.767 93.432 130.531 93.164 130.227 92.972C129.923 92.78 129.571 92.684 129.171 92.684C128.779 92.684 128.431 92.78 128.127 92.972C127.823 93.164 127.587 93.432 127.419 93.776C127.251 94.12 127.167 94.52 127.167 94.976C127.167 95.44 127.251 95.844 127.419 96.188C127.587 96.524 127.823 96.788 128.127 96.98C128.431 97.172 128.779 97.268 129.171 97.268ZM136.106 98.144C135.642 98.144 135.234 98.052 134.882 97.868C134.538 97.684 134.27 97.4 134.078 97.016C133.894 96.632 133.802 96.152 133.802 95.576V91.952H134.81V95.468C134.81 96.068 134.942 96.52 135.206 96.824C135.47 97.128 135.842 97.28 136.322 97.28C136.658 97.28 136.962 97.2 137.234 97.04C137.506 96.872 137.718 96.636 137.87 96.332C138.03 96.02 138.11 95.64 138.11 95.192V91.952H139.118V98H138.206L138.146 96.944C137.962 97.32 137.69 97.616 137.33 97.832C136.97 98.04 136.562 98.144 136.106 98.144ZM143.441 98.144C142.873 98.144 142.369 98.012 141.929 97.748C141.497 97.484 141.157 97.116 140.909 96.644C140.661 96.164 140.537 95.608 140.537 94.976C140.537 94.336 140.657 93.78 140.897 93.308C141.145 92.836 141.489 92.468 141.929 92.204C142.377 91.94 142.889 91.808 143.465 91.808C144.057 91.808 144.557 91.94 144.965 92.204C145.381 92.468 145.697 92.816 145.913 93.248C146.137 93.672 146.249 94.14 146.249 94.652C146.249 94.732 146.249 94.816 146.249 94.904C146.249 94.992 146.245 95.092 146.237 95.204H141.293V94.424H145.265C145.241 93.872 145.057 93.44 144.713 93.128C144.377 92.816 143.953 92.66 143.441 92.66C143.097 92.66 142.777 92.74 142.481 92.9C142.193 93.052 141.961 93.28 141.785 93.584C141.609 93.88 141.521 94.252 141.521 94.7V95.036C141.521 95.532 141.609 95.948 141.785 96.284C141.969 96.62 142.205 96.872 142.493 97.04C142.789 97.208 143.105 97.292 143.441 97.292C143.865 97.292 144.213 97.2 144.485 97.016C144.765 96.824 144.965 96.568 145.085 96.248H146.081C145.985 96.608 145.817 96.932 145.577 97.22C145.337 97.508 145.037 97.736 144.677 97.904C144.325 98.064 143.913 98.144 143.441 98.144ZM149.89 98.144C149.386 98.144 148.946 98.06 148.57 97.892C148.202 97.724 147.906 97.492 147.682 97.196C147.466 96.892 147.334 96.536 147.286 96.128H148.318C148.358 96.336 148.442 96.528 148.57 96.704C148.698 96.88 148.87 97.024 149.086 97.136C149.31 97.24 149.582 97.292 149.902 97.292C150.182 97.292 150.414 97.252 150.598 97.172C150.782 97.084 150.918 96.968 151.006 96.824C151.102 96.68 151.15 96.524 151.15 96.356C151.15 96.108 151.09 95.92 150.97 95.792C150.858 95.664 150.69 95.564 150.466 95.492C150.242 95.412 149.97 95.344 149.65 95.288C149.386 95.24 149.126 95.176 148.87 95.096C148.614 95.016 148.386 94.912 148.186 94.784C147.986 94.648 147.826 94.484 147.706 94.292C147.594 94.1 147.538 93.864 147.538 93.584C147.538 93.24 147.626 92.936 147.802 92.672C147.978 92.4 148.23 92.188 148.558 92.036C148.894 91.884 149.282 91.808 149.722 91.808C150.37 91.808 150.894 91.964 151.294 92.276C151.694 92.588 151.93 93.04 152.002 93.632H151.006C150.966 93.328 150.834 93.092 150.61 92.924C150.394 92.748 150.094 92.66 149.71 92.66C149.334 92.66 149.046 92.736 148.846 92.888C148.654 93.04 148.558 93.24 148.558 93.488C148.558 93.648 148.61 93.792 148.714 93.92C148.826 94.04 148.986 94.144 149.194 94.232C149.41 94.32 149.674 94.392 149.986 94.448C150.386 94.52 150.75 94.616 151.078 94.736C151.406 94.856 151.67 95.036 151.87 95.276C152.078 95.508 152.182 95.84 152.182 96.272C152.182 96.648 152.086 96.976 151.894 97.256C151.71 97.536 151.446 97.756 151.102 97.916C150.758 98.068 150.354 98.144 149.89 98.144ZM155.739 98C155.379 98 155.067 97.944 154.803 97.832C154.539 97.72 154.335 97.532 154.191 97.268C154.055 96.996 153.987 96.632 153.987 96.176V92.804H152.931V91.952H153.987L154.119 90.488H154.995V91.952H156.747V92.804H154.995V96.176C154.995 96.552 155.071 96.808 155.223 96.944C155.375 97.072 155.643 97.136 156.027 97.136H156.675V98H155.739ZM158.159 98V91.952H159.167V98H158.159ZM158.663 90.668C158.463 90.668 158.295 90.604 158.159 90.476C158.031 90.34 157.967 90.172 157.967 89.972C157.967 89.772 158.031 89.612 158.159 89.492C158.295 89.364 158.463 89.3 158.663 89.3C158.855 89.3 159.019 89.364 159.155 89.492C159.291 89.612 159.359 89.772 159.359 89.972C159.359 90.172 159.291 90.34 159.155 90.476C159.019 90.604 158.855 90.668 158.663 90.668ZM163.645 98.144C163.085 98.144 162.581 98.016 162.133 97.76C161.685 97.496 161.333 97.128 161.077 96.656C160.821 96.176 160.693 95.62 160.693 94.988C160.693 94.34 160.821 93.78 161.077 93.308C161.341 92.828 161.697 92.46 162.145 92.204C162.601 91.94 163.109 91.808 163.669 91.808C164.245 91.808 164.753 91.94 165.193 92.204C165.641 92.46 165.993 92.828 166.249 93.308C166.513 93.78 166.645 94.336 166.645 94.976C166.645 95.616 166.513 96.176 166.249 96.656C165.985 97.128 165.629 97.496 165.181 97.76C164.733 98.016 164.221 98.144 163.645 98.144ZM163.657 97.28C164.001 97.28 164.321 97.196 164.617 97.028C164.913 96.852 165.153 96.592 165.337 96.248C165.521 95.904 165.613 95.48 165.613 94.976C165.613 94.464 165.521 94.04 165.337 93.704C165.161 93.36 164.925 93.104 164.629 92.936C164.341 92.76 164.021 92.672 163.669 92.672C163.333 92.672 163.013 92.76 162.709 92.936C162.413 93.104 162.173 93.36 161.989 93.704C161.813 94.04 161.725 94.464 161.725 94.976C161.725 95.48 161.813 95.904 161.989 96.248C162.173 96.592 162.409 96.852 162.697 97.028C162.993 97.196 163.313 97.28 163.657 97.28ZM168.059 98V91.952H168.971L169.019 93.008C169.211 92.632 169.483 92.34 169.835 92.132C170.195 91.916 170.603 91.808 171.059 91.808C171.531 91.808 171.939 91.904 172.283 92.096C172.627 92.28 172.895 92.564 173.087 92.948C173.279 93.324 173.375 93.804 173.375 94.388V98H172.367V94.496C172.367 93.888 172.231 93.432 171.959 93.128C171.695 92.824 171.319 92.672 170.831 92.672C170.495 92.672 170.195 92.756 169.931 92.924C169.667 93.084 169.455 93.32 169.295 93.632C169.143 93.936 169.067 94.316 169.067 94.772V98H168.059ZM177.229 98.144C176.725 98.144 176.285 98.06 175.909 97.892C175.541 97.724 175.245 97.492 175.021 97.196C174.805 96.892 174.673 96.536 174.625 96.128H175.657C175.697 96.336 175.781 96.528 175.909 96.704C176.037 96.88 176.209 97.024 176.425 97.136C176.649 97.24 176.921 97.292 177.241 97.292C177.521 97.292 177.753 97.252 177.937 97.172C178.121 97.084 178.257 96.968 178.345 96.824C178.441 96.68 178.489 96.524 178.489 96.356C178.489 96.108 178.429 95.92 178.309 95.792C178.197 95.664 178.029 95.564 177.805 95.492C177.581 95.412 177.309 95.344 176.989 95.288C176.725 95.24 176.465 95.176 176.209 95.096C175.953 95.016 175.725 94.912 175.525 94.784C175.325 94.648 175.165 94.484 175.045 94.292C174.933 94.1 174.877 93.864 174.877 93.584C174.877 93.24 174.965 92.936 175.141 92.672C175.317 92.4 175.569 92.188 175.897 92.036C176.233 91.884 176.621 91.808 177.061 91.808C177.709 91.808 178.233 91.964 178.633 92.276C179.033 92.588 179.269 93.04 179.341 93.632H178.345C178.305 93.328 178.173 93.092 177.949 92.924C177.733 92.748 177.433 92.66 177.049 92.66C176.673 92.66 176.385 92.736 176.185 92.888C175.993 93.04 175.897 93.24 175.897 93.488C175.897 93.648 175.949 93.792 176.053 93.92C176.165 94.04 176.325 94.144 176.533 94.232C176.749 94.32 177.013 94.392 177.325 94.448C177.725 94.52 178.089 94.616 178.417 94.736C178.745 94.856 179.009 95.036 179.209 95.276C179.417 95.508 179.521 95.84 179.521 96.272C179.521 96.648 179.425 96.976 179.233 97.256C179.049 97.536 178.785 97.756 178.441 97.916C178.097 98.068 177.693 98.144 177.229 98.144ZM181.333 98.06C181.133 98.06 180.965 97.996 180.829 97.868C180.701 97.732 180.637 97.568 180.637 97.376C180.637 97.184 180.701 97.024 180.829 96.896C180.965 96.76 181.133 96.692 181.333 96.692C181.533 96.692 181.697 96.76 181.825 96.896C181.953 97.024 182.017 97.184 182.017 97.376C182.017 97.568 181.953 97.732 181.825 97.868C181.697 97.996 181.533 98.06 181.333 98.06Z" fill="white" fill-opacity="0.7"/>
</svg>
